<?xml version="1.0" encoding="UTF-8" standalone="no"?>
<!DOCTYPE svg PUBLIC "-//W3C//DTD SVG 1.1//EN" "http://www.w3.org/Graphics/SVG/1.1/DTD/svg11.dtd">
<svg xmlns="http://www.w3.org/2000/svg" xmlns:xl="http://www.w3.org/1999/xlink" version="1.1" viewBox="0 0 1243 936" width="1243pt" height="78pc" xmlns:dc="http://purl.org/dc/elements/1.1/"><metadata> Produced by OmniGraffle 6.5 <dc:date>2016-03-11 09:32:47 +0000</dc:date></metadata><defs><filter id="Shadow" filterUnits="userSpaceOnUse"><feGaussianBlur in="SourceAlpha" result="blur" stdDeviation="1.308"/><feOffset in="blur" result="offset" dx="0" dy="2"/><feFlood flood-color="black" flood-opacity=".5" result="flood"/><feComposite in="flood" in2="offset" operator="in"/></filter><linearGradient x1="0" x2="1" id="Gradient" gradientUnits="userSpaceOnUse"><stop offset="0" stop-color="white"/><stop offset="1" stop-color="#dad0b4"/></linearGradient><linearGradient id="Obj_Gradient" xl:href="#Gradient" gradientTransform="translate(349.5118 334.12642) rotate(-90) scale(27.7351)"/><radialGradient cx="0" cy="0" r="1" id="Gradient_2" gradientUnits="userSpaceOnUse"><stop offset="0" stop-color="white"/><stop offset="1" stop-color="#bdad84"/></radialGradient><radialGradient id="Obj_Gradient_2" xl:href="#Gradient_2" gradientTransform="translate(343.37498 323.44666) scale(42.890396)"/><radialGradient cx="0" cy="0" r="1" id="Gradient_3" gradientUnits="userSpaceOnUse"><stop offset="0" stop-color="white"/><stop offset="1" stop-color="#a7905a"/></radialGradient><radialGradient id="Obj_Gradient_3" xl:href="#Gradient_3" gradientTransform="translate(343.3628 316.89859) scale(51.085568)"/><radialGradient cx="0" cy="0" r="1" id="Gradient_4" gradientUnits="userSpaceOnUse"><stop offset="0" stop-color="white"/><stop offset="1" stop-color="#2b8a53"/></radialGradient><radialGradient id="Obj_Gradient_4" xl:href="#Gradient_4" gradientTransform="translate(330.82555 350.68078) rotate(-20) scale(3.7584803)"/><radialGradient cx="0" cy="0" r="1" id="Gradient_5" gradientUnits="userSpaceOnUse"><stop offset="0" stop-color="#bde1bc"/><stop offset="1" stop-color="#20b714"/></radialGradient><radialGradient id="Obj_Gradient_5" xl:href="#Gradient_5" gradientTransform="translate(333.65298 335.71394) scale(8.0577414)"/><radialGradient cx="0" cy="0" r="1" id="Gradient_6" gradientUnits="userSpaceOnUse"><stop offset="0" stop-color="white"/><stop offset="1" stop-color="#e1dfc2"/></radialGradient><radialGradient id="Obj_Gradient_6" xl:href="#Gradient_6" gradientTransform="translate(334.80188 338.10035) scale(3.5575234)"/><radialGradient cx="0" cy="0" r="1" id="Gradient_7" gradientUnits="userSpaceOnUse"><stop offset="0" stop-color="black" stop-opacity=".4"/><stop offset="1" stop-color="#e1dfc2" stop-opacity=".4"/></radialGradient><radialGradient id="Obj_Gradient_7" xl:href="#Gradient_7" gradientTransform="translate(333.6814 341.57847) scale(8.276457)"/><radialGradient cx="0" cy="0" r="1" id="Gradient_8" gradientUnits="userSpaceOnUse"><stop offset="0" stop-color="#6e8a9c"/><stop offset="1" stop-color="#bdd5e0"/></radialGradient><radialGradient id="Obj_Gradient_8" xl:href="#Gradient_8" gradientTransform="translate(340.2229 344.7551) scale(11.338282)"/><linearGradient x1="0" x2="1" id="Gradient_9" gradientUnits="userSpaceOnUse"><stop offset="0" stop-color="white"/><stop offset="1" stop-color="#dad0b4"/></linearGradient><linearGradient id="Obj_Gradient_9" xl:href="#Gradient_9" gradientTransform="translate(360.44545 360.4252) rotate(90) scale(26.5748)"/><linearGradient x1="0" x2="1" id="Gradient_a" gradientUnits="userSpaceOnUse"><stop offset="0" stop-color="white"/><stop offset="1" stop-color="#d8d8d8"/></linearGradient><linearGradient id="Obj_Gradient_a" xl:href="#Gradient_a" gradientTransform="translate(109.59494 222.38623) rotate(-90) scale(27.096066)"/><radialGradient cx="0" cy="0" r="1" id="Gradient_b" gradientUnits="userSpaceOnUse"><stop offset="0" stop-color="white"/><stop offset="1" stop-color="#969696"/></radialGradient><radialGradient id="Obj_Gradient_b" xl:href="#Gradient_b" gradientTransform="translate(115.37008 179.36013) scale(26.045822)"/><linearGradient id="Obj_Gradient_c" xl:href="#Gradient_a" gradientTransform="translate(102.23399 181.55907) rotate(-90) scale(19.55906)"/><radialGradient cx="0" cy="0" r="1" id="Gradient_c" gradientUnits="userSpaceOnUse"><stop offset="0" stop-color="white"/><stop offset="1" stop-color="#b3b3b3"/></radialGradient><radialGradient id="Obj_Gradient_d" xl:href="#Gradient_c" gradientTransform="translate(115.37009 164.25046) scale(43.537045)"/><linearGradient id="Obj_Gradient_e" xl:href="#Gradient_a" gradientTransform="translate(75.507873 230.74016) rotate(-90) scale(24.94488)"/><radialGradient id="Obj_Gradient_f" xl:href="#Gradient_b" gradientTransform="translate(83.48031 222.23623) scale(12.2503756)"/><radialGradient cx="0" cy="0" r="1" id="Gradient_d" gradientUnits="userSpaceOnUse"><stop offset="0" stop-color="#6e8a9c"/><stop offset="1" stop-color="#34404f"/></radialGradient><radialGradient id="Obj_Gradient_10" xl:href="#Gradient_d" gradientTransform="translate(75.330713 218.09193) scale(19.440167)"/><radialGradient id="Obj_Gradient_11" xl:href="#Gradient_c" gradientTransform="translate(83.48032 214.44095) scale(25.356321)"/><radialGradient cx="0" cy="0" r="1" id="Gradient_e" gradientUnits="userSpaceOnUse"><stop offset="0" stop-color="white"/><stop offset="1" stop-color="#bac6dd"/></radialGradient><radialGradient id="Obj_Gradient_12" xl:href="#Gradient_e" gradientTransform="translate(100.34645 189.34434) scale(24.37466)"/><linearGradient x1="0" x2="1" id="Gradient_f" gradientUnits="userSpaceOnUse"><stop offset="0" stop-color="#dadada"/><stop offset="1" stop-color="#dadada"/></linearGradient><linearGradient id="Obj_Gradient_13" xl:href="#Gradient_f" gradientTransform="translate(508.4994 476.99933) rotate(-90) scale(80.99933)"/><radialGradient cx="0" cy="0" r="1" id="Gradient_10" gradientUnits="userSpaceOnUse"><stop offset="0" stop-color="#a5a5a5"/><stop offset="1" stop-color="#dadada"/></radialGradient><radialGradient id="Obj_Gradient_14" xl:href="#Gradient_10" gradientTransform="translate(553.447 453.59994) scale(70.795443)"/><font-face font-family="Helvetica Neue" font-size="18" panose-1="2 0 5 3 0 0 0 2 0 4" units-per-em="1000" underline-position="-100" underline-thickness="50" slope="0" x-height="517" cap-height="714" ascent="951.99585" descent="-212.99744" font-weight="500"><font-face-src><font-face-name name="HelveticaNeue"/></font-face-src></font-face><linearGradient id="Obj_Gradient_15" xl:href="#Gradient" gradientTransform="translate(793.4882 585.73666) rotate(-90) scale(27.7351)"/><radialGradient id="Obj_Gradient_16" xl:href="#Gradient_2" gradientTransform="translate(787.35136 575.0569) scale(42.890396)"/><radialGradient id="Obj_Gradient_17" xl:href="#Gradient_3" gradientTransform="translate(787.3392 568.50883) scale(51.085568)"/><radialGradient id="Obj_Gradient_18" xl:href="#Gradient_4" gradientTransform="translate(774.80193 602.29102) rotate(-20) scale(3.7584803)"/><radialGradient id="Obj_Gradient_19" xl:href="#Gradient_5" gradientTransform="translate(777.62936 587.3242) scale(8.0577414)"/><radialGradient id="Obj_Gradient_1a" xl:href="#Gradient_6" gradientTransform="translate(778.77826 589.7106) scale(3.5575234)"/><radialGradient id="Obj_Gradient_1b" xl:href="#Gradient_7" gradientTransform="translate(777.6578 593.1887) scale(8.276457)"/><radialGradient id="Obj_Gradient_1c" xl:href="#Gradient_8" gradientTransform="translate(784.19927 596.36533) scale(11.338282)"/><linearGradient id="Obj_Gradient_1d" xl:href="#Gradient_9" gradientTransform="translate(804.42183 612.03543) rotate(90) scale(26.5748)"/><linearGradient id="Obj_Gradient_1e" xl:href="#Gradient_a" gradientTransform="translate(955.59494 708.38623) rotate(-90) scale(27.096066)"/><radialGradient id="Obj_Gradient_1f" xl:href="#Gradient_b" gradientTransform="translate(961.3701 665.36013) scale(26.045822)"/><linearGradient id="Obj_Gradient_20" xl:href="#Gradient_a" gradientTransform="translate(948.234 667.55907) rotate(-90) scale(19.55906)"/><radialGradient id="Obj_Gradient_21" xl:href="#Gradient_c" gradientTransform="translate(961.3701 650.25046) scale(43.537045)"/><linearGradient id="Obj_Gradient_22" xl:href="#Gradient_a" gradientTransform="translate(921.5079 716.74016) rotate(-90) scale(24.94488)"/><radialGradient id="Obj_Gradient_23" xl:href="#Gradient_b" gradientTransform="translate(929.4803 708.23623) scale(12.2503756)"/><radialGradient id="Obj_Gradient_24" xl:href="#Gradient_d" gradientTransform="translate(921.3307 704.09193) scale(19.440167)"/><radialGradient id="Obj_Gradient_25" xl:href="#Gradient_c" gradientTransform="translate(929.4803 700.44095) scale(25.356321)"/><radialGradient id="Obj_Gradient_26" xl:href="#Gradient_e" gradientTransform="translate(946.34645 675.34434) scale(24.37466)"/><marker orient="auto" overflow="visible" markerUnits="strokeWidth" id="DimensionArrow_Marker" viewBox="-1 -6 10 12" markerWidth="10" markerHeight="12" color="olive"><g><path d="M 0 0 L 7.2000006 0 M 7.2000006 4.5000004 L 7.2000006 -4.5000004 M 0 1.8000001 L 6.3000005 0 L 0 -1.8000001" fill="none" stroke="currentColor" stroke-width="1"/></g></marker><marker orient="auto" overflow="visible" markerUnits="strokeWidth" id="DimensionArrow_Marker_2" viewBox="-9 -6 10 12" markerWidth="10" markerHeight="12" color="olive"><g><path d="M 0 0 L -7.2000006 0 M -7.2000006 -4.5000004 L -7.2000006 4.5000004 M 0 -1.8000001 L -6.3000005 0 L 0 1.8000001" fill="none" stroke="currentColor" stroke-width="1"/></g></marker><marker orient="auto" overflow="visible" markerUnits="strokeWidth" id="DimensionArrow_Marker_3" viewBox="-1 -6 10 12" markerWidth="10" markerHeight="12" color="olive"><g><path d="M 0 0 L 7.2000006 0 M 7.2000006 4.5000004 L 7.2000006 -4.5000004 M 0 1.8000001 L 6.3000005 0 L 0 -1.8000001" fill="none" stroke="currentColor" stroke-width="1"/></g></marker><marker orient="auto" overflow="visible" markerUnits="strokeWidth" id="DimensionArrow_Marker_4" viewBox="-9 -6 10 12" markerWidth="10" markerHeight="12" color="olive"><g><path d="M 0 0 L -7.2000006 0 M -7.2000006 -4.5000004 L -7.2000006 4.5000004 M 0 -1.8000001 L -6.3000005 0 L 0 1.8000001" fill="none" stroke="currentColor" stroke-width="1"/></g></marker><font-face font-family="Helvetica" font-size="16" units-per-em="1000" underline-position="-75.683594" underline-thickness="49.316406" slope="0" x-height="532.22656" cap-height="719.72656" ascent="770.01953" descent="-229.98047" font-weight="bold"><font-face-src><font-face-name name="Helvetica-Bold"/></font-face-src></font-face><font-face font-family="PingFang SC" font-size="16" panose-1="2 11 4 0 0 0 0 0 0 0" units-per-em="1000" underline-position="-150" underline-thickness="58" slope="0" x-height="600" cap-height="860" ascent="1060.00215" descent="-340.00069" font-weight="500"><font-face-src><font-face-name name="PingFangSC-Regular"/></font-face-src></font-face></defs><g stroke="none" stroke-opacity="1" stroke-dasharray="none" fill="none" fill-opacity="1"><title>Canvas 1</title><rect fill="white" width="1243" height="936"/><g><title>Layer 1</title><g><xl:use xl:href="#id12_Graphic" filter="url(#Shadow)"/><xl:use xl:href="#id2510_Graphic" filter="url(#Shadow)"/><xl:use xl:href="#id2516_Graphic" filter="url(#Shadow)"/><xl:use xl:href="#id43_Graphic" filter="url(#Shadow)"/><xl:use xl:href="#id2524_Graphic" filter="url(#Shadow)"/><xl:use xl:href="#id2525_Graphic" filter="url(#Shadow)"/><xl:use xl:href="#id2526_Graphic" filter="url(#Shadow)"/><xl:use xl:href="#id2527_Graphic" filter="url(#Shadow)"/><xl:use xl:href="#id2528_Graphic" filter="url(#Shadow)"/><xl:use xl:href="#id33751_Graphic" filter="url(#Shadow)"/><xl:use xl:href="#id33753_Graphic" filter="url(#Shadow)"/><xl:use xl:href="#id33754_Graphic" filter="url(#Shadow)"/></g><path d="M 361.31826 367.53342 L 375.02362 360.14948 L 375.02362 316.8986 L 355.39915 306.39133 L 324 323.49619 L 324.01159 367.4314 L 324.01159 367.4314 C 329.07181 372.67926 335.90672 376.14713 343.37499 377.2559 L 349.5118 373.8943 L 349.5118 374.06365 L 371.37908 387 L 371.36985 373.5851 L 361.31826 367.53342 Z M 332.71166 330.33871 L 332.71166 330.33871 C 336.01307 332.15162 339.61797 333.43211 343.37499 334.12643 L 343.37499 334.12643 C 339.61594 333.43873 336.00988 332.15782 332.71166 330.33871 Z" fill="#fc00ff" fill-opacity="0"/><path d="M 361.31826 367.53342 L 375.02362 360.14948 L 375.02362 316.8986 L 355.39915 306.39133 L 324 323.49619 L 324.01159 367.4314 L 324.01159 367.4314 C 329.07181 372.67926 335.90672 376.14713 343.37499 377.2559 L 349.5118 373.8943 L 349.5118 374.06365 L 371.37908 387 L 371.36985 373.5851 L 361.31826 367.53342 Z M 332.71166 330.33871 L 332.71166 330.33871 C 336.01307 332.15162 339.61797 333.43211 343.37499 334.12643 L 343.37499 334.12643 C 339.61594 333.43873 336.00988 332.15782 332.71166 330.33871 Z" stroke="black" stroke-opacity="0" stroke-linecap="round" stroke-linejoin="round" stroke-width=".72000003"/><path d="M 343.3628 334.12564 L 375.02362 316.8986 L 355.39915 306.39132 L 324 323.49619 L 324 323.49619 C 328.98644 328.98245 335.8159 332.72948 343.37499 334.12642" fill="url(#Obj_Gradient)"/><path d="M 343.3628 334.12564 L 375.02362 316.8986 L 355.39915 306.39132 L 324 323.49619 L 324 323.49619 C 328.98644 328.98245 335.8159 332.72948 343.37499 334.12642" stroke="white" stroke-linecap="round" stroke-linejoin="round" stroke-width=".36000001"/><path d="M 343.37498 334.12642 L 343.37498 334.12642 C 335.8019 332.74098 328.96698 328.97122 324.01159 323.44666 L 324.01159 367.43138 L 324.01159 367.43138 C 329.0718 372.67927 335.9067 376.14714 343.37498 377.2559 L 343.3628 334.12564" fill="url(#Obj_Gradient_2)"/><path d="M 343.37498 334.12642 L 343.37498 334.12642 C 335.8019 332.74098 328.96698 328.97122 324.01159 323.44666 L 324.01159 367.43138 L 324.01159 367.43138 C 329.0718 372.67927 335.9067 376.14714 343.37498 377.2559 L 343.3628 334.12564" stroke="white" stroke-linecap="round" stroke-linejoin="round" stroke-width=".36000001"/><path d="M 343.3628 334.12564 L 343.3628 377.20715 L 375.02362 360.14947 L 375.02362 316.89859 Z" fill="url(#Obj_Gradient_3)"/><path d="M 343.3628 334.12564 L 343.3628 377.20715 L 375.02362 360.14947 L 375.02362 316.89859 Z" stroke="white" stroke-linecap="round" stroke-linejoin="round" stroke-width=".36000001"/><path d="M 375.02362 316.89704 L 355.39915 306.38976 L 324 323.49463 L 324.01159 367.42982 L 324.01159 367.42982 C 329.0718 372.6777 335.90672 376.14557 343.37499 377.25434 L 375.02362 360.1479 L 375.02362 316.89704 Z" stroke="black" stroke-linecap="round" stroke-linejoin="round" stroke-width="1"/><path d="M 333.40697 350.37071 C 334.22098 350.91375 334.65833 352.11537 334.38382 353.0546 C 334.10932 353.99382 333.22691 354.315 332.4129 353.77195 C 331.5989 353.2289 331.16155 352.0273 331.43606 351.08807 C 331.71056 350.14884 332.59297 349.82767 333.40697 350.37071" fill="url(#Obj_Gradient_4)"/><path d="M 333.40697 350.37071 C 334.22098 350.91375 334.65833 352.11537 334.38382 353.0546 C 334.10932 353.99382 333.22691 354.315 332.4129 353.77195 C 331.5989 353.2289 331.16155 352.0273 331.43606 351.08807 C 331.71056 350.14884 332.59297 349.82767 333.40697 350.37071" stroke="black" stroke-linecap="round" stroke-linejoin="round" stroke-width=".36000001"/><path d="M 327.13992 359.04987 L 327.13992 359.04987 C 331.04142 362.25482 335.49829 364.54399 340.2229 365.76964 M 327.13992 361.6767 L 327.13992 361.6767 C 331.04142 364.88164 335.49829 367.1708 340.2229 368.39646 M 327.13992 364.3035 L 327.13992 364.3035 C 331.04142 367.50846 335.49829 369.79763 340.2229 371.02328" stroke="black" stroke-linecap="round" stroke-linejoin="round" stroke-width=".60000002"/><path d="M 327.08292 332.92055 L 327.08292 332.92055 C 330.83685 336.06455 335.3124 338.36332 340.1659 339.64032 L 340.1659 339.64032 C 340.52718 339.5644 340.75415 339.22936 340.67287 338.89198 C 340.616 338.65596 340.41863 338.47164 340.1659 338.41854 L 340.1659 338.41854 C 335.4122 337.19242 331.02494 334.9599 327.34458 331.89426 L 327.34458 331.89426 C 327.16777 331.74283 326.89299 331.75393 326.73084 331.91904 C 326.6458 332.00563 326.60515 332.12239 326.61938 332.23912 L 326.61938 332.23912 C 326.64735 332.52273 326.8199 332.77639 327.08292 332.92055 Z" fill="url(#Obj_Gradient_5)"/><path d="M 327.08292 332.92055 L 327.08292 332.92055 C 330.83685 336.06455 335.3124 338.36332 340.1659 339.64032 L 340.1659 339.64032 C 340.52718 339.5644 340.75415 339.22936 340.67287 338.89198 C 340.616 338.65596 340.41863 338.47164 340.1659 338.41854 L 340.1659 338.41854 C 335.4122 337.19242 331.02494 334.9599 327.34458 331.89426 L 327.34458 331.89426 C 327.16777 331.74283 326.89299 331.75393 326.73084 331.91904 C 326.6458 332.00563 326.60515 332.12239 326.61938 332.23912 L 326.61938 332.23912 C 326.64735 332.52273 326.8199 332.77639 327.08292 332.92055 Z" stroke="black" stroke-linecap="butt" stroke-linejoin="miter" stroke-width=".39062"/><path d="M 334.80188 338.0503 L 334.80188 338.0503 C 333.99513 335.80967 332.27773 334.9543 330.87698 336.09547 L 330.87698 336.09547 C 330.43776 336.95633 331.48144 337.83172 333.2081 338.0507 C 333.73107 338.11703 334.27905 338.1169 334.80188 338.0503 Z" fill="url(#Obj_Gradient_6)"/><path d="M 334.80188 338.0503 L 334.80188 338.0503 C 333.99513 335.80967 332.27773 334.9543 330.87698 336.09547 L 330.87698 336.09547 C 330.43776 336.95633 331.48144 337.83172 333.2081 338.0507 C 333.73107 338.11703 334.27905 338.1169 334.80188 338.0503 Z" stroke="black" stroke-linecap="butt" stroke-linejoin="miter" stroke-width=".39062"/><path d="M 327.13991 336.5081 L 327.13991 339.92907 L 327.13991 339.92907 C 330.9414 343.0099 335.40105 345.3005 340.2229 346.64884 L 340.2229 343.22787 L 340.2229 343.22787 C 335.41442 341.84986 330.96107 339.5625 327.13991 336.5081 Z" fill="url(#Obj_Gradient_7)"/><path d="M 327.13991 338.03532 L 327.13991 338.03532 C 330.8753 341.20365 335.35732 343.50574 340.2229 344.7551 L 340.2229 343.89985 L 340.2229 343.89985 C 335.40122 342.55113 330.94165 340.26058 327.13991 337.18008 L 327.13991 338.03532 Z" fill="url(#Obj_Gradient_8)"/><path d="M 349.5118 374.06364 L 371.37908 387 L 371.36985 373.5851 L 349.5118 360.4252 L 349.5118 374.06364 Z" fill="url(#Obj_Gradient_9)"/><path d="M 371.37908 373.7126 L 363.00054 375.67338 L 363.00054 375.67338 C 361.2562 376.12366 359.5033 375.15059 357.93772 372.8629 L 349.5118 360.4252 M 371.37908 387 L 363.00063 375.67398 M 357.93772 372.8629 L 349.5118 373.7126" stroke="#4984a4" stroke-linecap="butt" stroke-linejoin="miter" stroke-width=".39062"/><path d="M 83.480317 232.86615 L 95.881887 225.77954 L 95.881887 222.23623 L 67.181097 205.79528 L 55.133858 214.44095 L 55.133858 216.56694 L 83.480317 232.86615 Z M 85.249747 164.25046 L 85.249747 196.48404 L 85.249747 196.48404 C 88.27346 199.15704 91.49621 201.62395 94.893287 203.86586 L 94.89329 203.86586 C 93.50403 206.50271 92.947445 209.45804 93.289307 212.38256 L 93.289307 212.38256 C 97.745875 221.14253 108.91862 224.8503 118.24434 220.66408 C 121.045834 219.40652 123.47022 217.51398 125.29903 215.15698 L 125.29903 215.15698 C 125.938095 213.16995 126.143185 211.08211 125.90199 209.01878 L 125.90199 209.01878 C 125.39593 204.68966 122.96326 200.76386 119.20575 198.21251 L 119.21822 179.36013 L 119.21822 179.36013 C 110.711425 171.51971 100.43159 165.58465 89.149607 162.00001 L 85.249747 164.25046 L 85.249747 164.25046 C 96.579266 167.74568 106.8924 173.6721 115.37008 181.55906 L 115.37008 181.55906 C 106.79149 173.79408 96.50997 167.88582 85.249747 164.25046 Z" fill="#fc00ff" fill-opacity="0"/><path d="M 83.480317 232.86615 L 95.881887 225.77954 L 95.881887 222.23623 L 67.181097 205.79528 L 55.133858 214.44095 L 55.133858 216.56694 L 83.480317 232.86615 Z M 85.249747 164.25046 L 85.249747 196.48404 L 85.249747 196.48404 C 88.27346 199.15704 91.49621 201.62395 94.893287 203.86586 L 94.89329 203.86586 C 93.50403 206.50271 92.947445 209.45804 93.289307 212.38256 L 93.289307 212.38256 C 97.745875 221.14253 108.91862 224.8503 118.24434 220.66408 C 121.045834 219.40652 123.47022 217.51398 125.29903 215.15698 L 125.29903 215.15698 C 125.938095 213.16995 126.143185 211.08211 125.90199 209.01878 L 125.90199 209.01878 C 125.39593 204.68966 122.96326 200.76386 119.20575 198.21251 L 119.21822 179.36013 L 119.21822 179.36013 C 110.711425 171.51971 100.43159 165.58465 89.149607 162.00001 L 85.249747 164.25046 L 85.249747 164.25046 C 96.579266 167.74568 106.8924 173.6721 115.37008 181.55906 L 115.37008 181.55906 C 106.79149 173.79408 96.50997 167.88582 85.249747 164.25046 Z" stroke="black" stroke-opacity="0" stroke-linecap="round" stroke-linejoin="round" stroke-width=".72000003"/><path d="M 125.90199 209.01878 L 125.90199 209.01878 C 124.91311 200.55937 116.810874 194.45468 107.80513 195.38356 C 98.79939 196.31245 92.30043 203.92316 93.28931 212.38257 C 93.28931 212.38257 93.28931 212.38257 93.28931 212.38257 L 93.289307 212.38257 C 97.74589 221.14254 108.91865 224.85029 118.244364 220.66407 C 121.04585 219.40651 123.470224 217.51397 125.29903 215.15698 L 125.29903 215.15698 C 125.9381 213.16995 126.14319 211.08211 125.90199 209.01878 Z" fill="url(#Obj_Gradient_a)"/><path d="M 125.90199 209.01878 L 125.90199 209.01878 C 124.91311 200.55937 116.810874 194.45468 107.80513 195.38356 C 98.79939 196.31245 92.30043 203.92316 93.28931 212.38257 C 93.28931 212.38257 93.28931 212.38257 93.28931 212.38257 L 93.289307 212.38257 C 97.74589 221.14254 108.91865 224.85029 118.244364 220.66407 C 121.04585 219.40651 123.470224 217.51397 125.29903 215.15698 L 125.29903 215.15698 C 125.9381 213.16995 126.14319 211.08211 125.90199 209.01878 Z" stroke="white" stroke-linecap="round" stroke-linejoin="round" stroke-width=".72000003"/><path d="M 115.37008 213.87403 L 119.19685 211.67718 L 119.21822 179.36013 L 115.37008 181.55907 Z" fill="url(#Obj_Gradient_b)"/><path d="M 115.37008 213.87403 L 119.19685 211.67718 L 119.21822 179.36013 L 115.37008 181.55907 Z" stroke="white" stroke-linecap="round" stroke-linejoin="round" stroke-width=".72000003"/><path d="M 85.24976 164.25047 L 85.24976 164.25047 C 96.57928 167.74568 106.892416 173.67211 115.37009 181.55907 L 119.21822 179.36013 L 119.21822 179.36013 C 110.711426 171.51972 100.431597 165.58465 89.14962 162.00001 L 85.24976 164.25047 Z" fill="url(#Obj_Gradient_c)"/><path d="M 85.24976 164.25047 L 85.24976 164.25047 C 96.57928 167.74568 106.892416 173.67211 115.37009 181.55907 L 119.21822 179.36013 L 119.21822 179.36013 C 110.711426 171.51972 100.431597 165.58465 89.14962 162.00001 L 85.24976 164.25047 Z" stroke="white" stroke-linecap="round" stroke-linejoin="round" stroke-width=".72000003"/><path d="M 85.24976 196.48404 L 85.249757 196.48404 C 93.924163 204.15233 104.17598 210.07122 115.37009 213.87402 L 115.37009 181.55906 L 115.37009 181.55906 C 106.791504 173.79407 96.509984 167.88582 85.24976 164.25046 L 85.24976 196.48404 Z" fill="url(#Obj_Gradient_d)"/><path d="M 85.24976 196.48404 L 85.249757 196.48404 C 93.924163 204.15233 104.17598 210.07122 115.37009 213.87402 L 115.37009 181.55906 L 115.37009 181.55906 C 106.791504 173.79407 96.509984 167.88582 85.24976 164.25046 L 85.24976 196.48404 Z" stroke="black" stroke-linecap="round" stroke-linejoin="round" stroke-width=".72000003"/><path d="M 85.24975 196.48404 L 85.249747 196.48404 C 88.210585 199.12171 91.325777 201.60175 94.58052 203.91239 L 94.58052 203.91239 C 93.619295 206.62676 93.243604 209.49386 93.4754 212.34616 L 93.4754 212.34616 C 97.81985 221.04646 108.85021 224.79123 118.1124 220.71033 C 120.966574 219.45279 123.43185 217.53182 125.27485 215.12926 L 125.27485 215.12926 C 127.06488 208.8445 124.67308 202.1777 119.20575 198.21251 L 119.21821 179.36012 L 119.21821 179.36012 C 110.71143 171.51971 100.431605 165.58465 89.14961 162 L 85.24975 164.25046 L 85.24975 196.48404 Z" stroke="black" stroke-linecap="round" stroke-linejoin="round" stroke-width="1.5"/><path d="M 88.15748 168.23622 L 88.15748 195.87402 L 112.53543 210.03449" stroke="white" stroke-linecap="round" stroke-linejoin="round" stroke-width=".72000003"/><path d="M 55.133858 214.44095 L 67.181098 205.79528 L 95.88189 222.23622 L 83.48032 230.74016 Z" fill="url(#Obj_Gradient_e)"/><path d="M 55.133858 214.44095 L 67.181098 205.79528 L 95.88189 222.23622 L 83.48032 230.74016 Z" stroke="white" stroke-linecap="round" stroke-linejoin="round" stroke-width=".72000003"/><path d="M 83.48031 232.86615 L 83.48031 230.74017 L 95.88188 222.23623 L 95.88188 225.77954 Z" fill="url(#Obj_Gradient_f)"/><path d="M 83.48031 232.86615 L 83.48031 230.74017 L 95.88188 222.23623 L 95.88188 225.77954 Z" stroke="white" stroke-linecap="round" stroke-linejoin="round" stroke-width=".72000003"/><path d="M 58.677168 213.96625 L 60.672428 215.11857 L 62.335508 214.05822 L 60.340008 212.90536 L 58.677168 213.96625 Z M 61.148068 212.35213 L 63.143328 213.50445 L 64.806418 212.4441 L 62.810908 211.29124 L 61.148068 212.35213 Z M 63.618968 210.73801 L 65.614228 211.89033 L 67.277318 210.82998 L 65.281808 209.67712 L 63.618968 210.73801 Z M 66.089868 209.12389 L 68.085128 210.27621 L 69.748218 209.21586 L 67.752708 208.063 L 66.089868 209.12389 Z M 69.795878 211.29094 L 71.791138 212.44326 L 73.454228 211.38291 L 71.458718 210.23005 L 69.795878 211.29094 Z M 73.501888 213.45799 L 75.497148 214.61031 L 77.160228 213.54996 L 75.164728 212.3971 L 73.501888 213.45799 Z M 77.207888 215.62504 L 79.203148 216.77736 L 80.866238 215.71701 L 78.870728 214.56415 L 77.207888 215.62504 Z M 84.61991 219.95914 L 86.61516 221.11146 L 88.27825 220.05111 L 86.28274 218.89825 L 84.61991 219.95914 Z M 88.32591 222.12619 L 90.32117 223.27851 L 91.98426 222.21816 L 89.98875 221.0653 L 88.32591 222.12619 Z M 85.85501 223.74031 L 87.85027 224.89263 L 89.51335 223.83229 L 87.51785 222.67943 L 85.85501 223.74031 Z M 82.149 221.57326 L 84.14426 222.72558 L 85.80735 221.66523 L 83.81184 220.51237 L 82.149 221.57326 Z M 80.913898 217.79209 L 82.90916 218.94441 L 84.57224 217.88406 L 82.57674 216.7312 L 80.913898 217.79209 Z M 78.442998 219.40621 L 80.438258 220.55853 L 82.101338 219.49818 L 80.105838 218.34532 L 78.442998 219.40621 Z M 74.736988 217.23916 L 76.732248 218.39148 L 78.395338 217.33113 L 76.399828 216.17827 L 74.736988 217.23916 Z M 71.030988 215.07211 L 73.026238 216.22443 L 74.689328 215.16408 L 72.693818 214.01122 L 71.030988 215.07211 Z M 67.324978 212.90506 L 69.320238 214.05738 L 70.983318 212.99703 L 68.987818 211.84417 L 67.324978 212.90506 Z M 64.854078 214.51918 L 66.849338 215.6715 L 68.512418 214.61115 L 66.516918 213.45829 L 64.854078 214.51918 Z M 68.560078 216.68623 L 70.555338 217.83855 L 72.218428 216.7782 L 70.222918 215.62534 L 68.560078 216.68623 Z M 72.266088 218.85328 L 74.261348 220.0056 L 75.924428 218.94525 L 73.928928 217.79239 L 72.266088 218.85328 Z M 75.972098 221.02033 L 77.967358 222.17265 L 79.630438 221.11231 L 77.634928 219.95945 L 75.972098 221.02033 Z M 79.678098 223.18738 L 81.673358 224.3397 L 83.33645 223.27936 L 81.340938 222.1265 L 79.678098 223.18738 Z M 83.38411 225.35443 L 85.37937 226.50675 L 87.04245 225.44641 L 85.04695 224.29355 L 83.38411 225.35443 Z M 80.913208 226.96855 L 82.90847 228.12087 L 84.57155 227.06053 L 82.57605 225.90767 L 80.913208 226.96855 Z M 77.207198 224.8015 L 79.202458 225.95382 L 80.865548 224.89348 L 78.870038 223.74062 L 77.207198 224.8015 Z M 66.089118 218.30023 L 75.496448 223.78677 L 77.159538 222.72643 L 67.751958 217.23934 L 66.089118 218.30023 Z M 62.383178 216.1333 L 64.378428 217.28562 L 66.041518 216.22527 L 64.046008 215.07241 L 62.383178 216.1333 Z" fill="url(#Obj_Gradient_10)"/><path d="M 66.090898 209.58402 L 68.086288 210.737 L 68.086268 210.27603 L 66.090658 209.12245 L 66.090898 209.58402 Z M 69.796738 211.75187 L 71.792117 212.90485 L 71.792107 212.44389 L 69.796498 211.2903 L 69.796738 211.75187 Z M 73.502567 213.91824 L 75.497957 215.07122 L 75.497947 214.61025 L 73.502337 213.45667 L 73.502567 213.91824 Z M 77.208407 216.08535 L 79.203797 217.23833 L 79.203777 216.77736 L 77.208167 215.62378 L 77.208407 216.08535 Z M 80.914247 218.25246 L 82.909627 219.40544 L 82.909617 218.94447 L 80.914007 217.79089 L 80.914247 218.25246 Z M 84.620147 220.42031 L 86.61554 221.57329 L 86.61552 221.11233 L 84.619907 219.95874 L 84.620147 220.42031 Z M 68.085288 210.27492 L 68.085358 210.73609 L 69.748238 209.67566 L 69.748298 209.21465 L 68.085288 210.27492 Z M 71.791267 212.44218 L 71.791337 212.90335 L 73.454217 211.84292 L 73.454277 211.38191 L 71.791267 212.44218 Z M 75.497247 214.60944 L 75.497327 215.07061 L 77.160207 214.01019 L 77.160267 213.54917 L 75.497247 214.60944 Z M 79.203237 216.7767 L 79.203307 217.23787 L 80.866187 216.17745 L 80.866247 215.71644 L 79.203237 216.7767 Z M 82.909217 218.94396 L 82.909297 219.40513 L 84.572177 218.34471 L 84.572227 217.8837 L 82.909217 218.94396 Z M 86.61521 221.11123 L 86.61528 221.5724 L 88.27816 220.51197 L 88.27822 220.05096 L 86.61521 221.11123 Z M 88.32592 222.58668 L 90.32131 223.73966 L 90.32129 223.27869 L 88.32568 222.12511 L 88.32592 222.58668 Z M 90.32119 223.27849 L 90.32126 223.73966 L 91.98414 222.67923 L 91.9842 222.21822 L 90.32119 223.27849 Z M 63.619998 211.19814 L 65.615388 212.35112 L 65.615368 211.89015 L 63.619758 210.73657 L 63.619998 211.19814 Z M 67.325828 213.36599 L 69.321218 214.51897 L 69.321208 214.05801 L 67.325598 212.90442 L 67.325828 213.36599 Z M 71.031667 215.53236 L 73.027057 216.68534 L 73.027037 216.22437 L 71.031437 215.07079 L 71.031667 215.53236 Z M 74.737507 217.69947 L 76.732897 218.85245 L 76.732877 218.39148 L 74.737267 217.2379 L 74.737507 217.69947 Z M 78.443337 219.86658 L 80.438727 221.01956 L 80.438717 220.55859 L 78.443107 219.40501 L 78.443337 219.86658 Z M 82.149247 222.03443 L 84.144627 223.18741 L 84.144617 222.72645 L 82.149007 221.57286 L 82.149247 222.03443 Z M 65.614378 211.88904 L 65.614458 212.35021 L 67.277338 211.28978 L 67.277398 210.82877 L 65.614378 211.88904 Z M 69.320368 214.0563 L 69.320438 214.51747 L 70.983317 213.45704 L 70.983377 212.99603 L 69.320368 214.0563 Z M 73.026347 216.22356 L 73.026427 216.68473 L 74.689307 215.62431 L 74.689367 215.16329 L 73.026347 216.22356 Z M 76.732337 218.39082 L 76.732407 218.85199 L 78.395287 217.79157 L 78.395347 217.33056 L 76.732337 218.39082 Z M 80.438317 220.55808 L 80.438387 221.01926 L 82.101277 219.95883 L 82.101327 219.49782 L 80.438317 220.55808 Z M 84.144297 222.72535 L 84.144377 223.18652 L 85.807257 222.12609 L 85.807317 221.66508 L 84.144297 222.72535 Z M 85.855017 224.2008 L 87.85041 225.35378 L 87.85039 224.89281 L 85.854777 223.73923 L 85.855017 224.2008 Z M 87.85029 224.89261 L 87.85036 225.35378 L 89.51324 224.29335 L 89.5133 223.83234 L 87.85029 224.89261 Z M 61.149098 212.81226 L 63.144478 213.96524 L 63.144468 213.50427 L 61.148858 212.35069 L 61.149098 212.81226 Z M 64.854928 214.98011 L 66.850318 216.13309 L 66.850308 215.67213 L 64.854698 214.51854 L 64.854928 214.98011 Z M 68.560768 217.14648 L 70.556158 218.29946 L 70.556138 217.83849 L 68.560528 216.68491 L 68.560768 217.14648 Z M 72.266607 219.31359 L 74.261987 220.46657 L 74.261977 220.0056 L 72.266367 218.85202 L 72.266607 219.31359 Z M 75.972437 221.4807 L 77.967827 222.63368 L 77.967817 222.17271 L 75.972207 221.01913 L 75.972437 221.4807 Z M 79.678337 223.64855 L 81.673727 224.80153 L 81.673717 224.34057 L 79.678107 223.18698 L 79.678337 223.64855 Z M 63.143478 213.50316 L 63.143558 213.96433 L 64.806438 212.9039 L 64.806498 212.44289 L 63.143478 213.50316 Z M 66.849468 215.67042 L 66.849538 216.13159 L 68.512418 215.07116 L 68.512478 214.61015 L 66.849468 215.67042 Z M 70.555448 217.83768 L 70.555518 218.29885 L 72.218407 217.23843 L 72.218457 216.77742 L 70.555448 217.83768 Z M 74.261427 220.00494 L 74.261507 220.46611 L 75.924387 219.40569 L 75.924447 218.94468 L 74.261427 220.00494 Z M 77.967417 222.1722 L 77.967487 222.63338 L 79.630367 221.57295 L 79.630427 221.11194 L 77.967417 222.1722 Z M 81.673397 224.33947 L 81.673477 224.80064 L 83.336357 223.74021 L 83.336417 223.2792 L 81.673397 224.33947 Z M 83.384117 225.81492 L 85.379497 226.9679 L 85.379487 226.50694 L 83.383877 225.35335 L 83.384117 225.81492 Z M 85.379387 226.50673 L 85.379457 226.9679 L 87.04234 225.90747 L 87.0424 225.44646 L 85.379387 226.50673 Z M 58.678188 214.42638 L 60.673578 215.57936 L 60.673568 215.11839 L 58.677958 213.96481 L 58.678188 214.42638 Z M 62.384028 216.59423 L 64.379418 217.74721 L 64.379398 217.28625 L 62.383798 216.13266 L 62.384028 216.59423 Z M 66.089868 218.7606 L 75.497327 224.2478 L 75.497317 223.78683 L 66.089628 218.29903 L 66.089868 218.7606 Z M 77.207437 225.26267 L 79.202827 226.41565 L 79.202817 225.95469 L 77.207207 224.8011 L 77.207437 225.26267 Z M 60.672578 215.11728 L 60.672658 215.57845 L 62.335538 214.51802 L 62.335588 214.05701 L 60.672578 215.11728 Z M 64.378558 217.28454 L 64.378638 217.74571 L 66.041518 216.68528 L 66.041578 216.22427 L 64.378558 217.28454 Z M 75.496517 223.78632 L 75.496587 224.2475 L 77.159467 223.18707 L 77.159527 222.72606 L 75.496517 223.78632 Z M 79.202497 225.95359 L 79.202577 226.41476 L 80.865457 225.35433 L 80.865507 224.89332 L 79.202497 225.95359 Z M 80.913207 227.42904 L 82.908597 228.58202 L 82.908587 228.12106 L 80.912977 226.96747 L 80.913207 227.42904 Z M 82.908477 228.12085 L 82.908557 228.58202 L 84.571437 227.5216 L 84.571497 227.06058 L 82.908477 228.12085 Z" fill="#848484"/><path d="M 55.133858 216.56694 L 83.48032 232.86615 L 83.48032 230.74017 L 55.133858 214.44095 Z" fill="url(#Obj_Gradient_11)"/><path d="M 55.133858 216.56694 L 83.48032 232.86615 L 83.48032 230.74017 L 55.133858 214.44095 Z" stroke="black" stroke-linecap="round" stroke-linejoin="round" stroke-width=".72000003"/><path d="M 55.133858 214.44095 L 67.181098 205.79528 L 95.88189 222.23623 L 95.88189 225.77954 L 83.48032 232.86615 L 55.133858 216.56694 Z" stroke="black" stroke-linecap="round" stroke-linejoin="round" stroke-width="1.5"/><path d="M 88.76693 195.4051 L 112.53543 209.19852 L 112.53543 182.26772 L 88.76693 168.57061 L 88.76693 195.4051 Z" fill="url(#Obj_Gradient_12)"/><path d="M 88.76693 195.4051 L 112.53543 209.19852 L 112.53543 182.26772 L 88.76693 168.57061 L 88.76693 195.4051 Z M 112.53543 209.19852 L 112.53543 210.45247 M 88.76693 168.57061 L 88.15748 168.23622" stroke="black" stroke-linecap="round" stroke-linejoin="round" stroke-width=".72000003"/><path d="M 457.8953 438.73264 L 457.8953 438.73264 C 452.42713 440.09002 449.00777 446.0033 450.25795 451.94035 C 451.10218 455.94954 453.9311 459.11552 457.5964 460.15317 L 457.5964 460.15317 C 460.97663 466.0908 467.9244 468.32591 473.7382 465.34602 L 473.7382 465.34602 C 473.6194 468.63273 475.97708 471.4017 479.00423 471.5307 C 480.4873 471.5939 481.93067 471.00186 483.00482 469.88978 L 483.00482 469.88977 C 488.70458 477.8906 499.2989 479.3598 506.66788 473.17132 C 506.9684 472.91894 507.26097 472.65562 507.5451 472.3818 L 507.5451 472.3818 C 511.63496 473.55275 516.18293 473.1422 520.2003 471.2394 L 520.2003 471.2394 C 526.06774 473.5394 532.32158 471.0764 534.82482 465.4797 L 534.82482 465.4797 C 537.20343 468.5609 541.37145 469.1095 544.13436 466.70507 C 545.02738 465.9279 545.69832 464.89834 546.07754 463.72326 L 546.07754 463.72326 C 554.33924 465.17557 562.12103 459.0812 563.45864 450.1111 C 563.73227 448.27618 563.71753 446.40418 563.41506 444.5746 L 563.41506 444.5746 C 566.85876 442.39638 568.02407 437.59955 566.01787 433.86058 C 564.73332 431.46657 562.37976 429.98715 559.82798 429.9697 L 559.82798 429.9697 C 562.2549 423.259 559.21183 415.6828 553.0311 413.0478 C 550.81915 412.10478 548.39943 411.8946 546.07754 412.4438 L 546.07753 412.4438 C 544.6978 407.03997 539.54457 403.8737 534.56748 405.37173 C 531.5102 406.29194 529.0911 408.83233 528.14216 412.11925 L 528.14216 412.11925 C 523.64794 410.21631 518.56865 410.95162 514.69065 414.06657 L 514.69065 414.06657 C 512.01307 411.30305 507.7791 411.41949 505.23383 414.32665 C 503.39456 416.42741 502.88184 419.51442 503.92942 422.1804 L 503.92942 422.1804 C 499.942 416.62025 492.55813 415.62244 487.43707 419.95175 C 485.41647 421.65995 483.9651 424.03802 483.30374 426.72416 L 483.30374 426.72416 C 475.40152 421.39748 465.0184 424.03465 460.11237 432.61443 C 459.03896 434.49165 458.2878 436.56455 457.8953 438.73264 Z" fill="#fc00ff" fill-opacity="0"/><path d="M 457.8953 438.73264 L 457.8953 438.73264 C 452.42713 440.09002 449.00777 446.0033 450.25795 451.94035 C 451.10218 455.94954 453.9311 459.11552 457.5964 460.15317 L 457.5964 460.15317 C 460.97663 466.0908 467.9244 468.32591 473.7382 465.34602 L 473.7382 465.34602 C 473.6194 468.63273 475.97708 471.4017 479.00423 471.5307 C 480.4873 471.5939 481.93067 471.00186 483.00482 469.88978 L 483.00482 469.88977 C 488.70458 477.8906 499.2989 479.3598 506.66788 473.17132 C 506.9684 472.91894 507.26097 472.65562 507.5451 472.3818 L 507.5451 472.3818 C 511.63496 473.55275 516.18293 473.1422 520.2003 471.2394 L 520.2003 471.2394 C 526.06774 473.5394 532.32158 471.0764 534.82482 465.4797 L 534.82482 465.4797 C 537.20343 468.5609 541.37145 469.1095 544.13436 466.70507 C 545.02738 465.9279 545.69832 464.89834 546.07754 463.72326 L 546.07754 463.72326 C 554.33924 465.17557 562.12103 459.0812 563.45864 450.1111 C 563.73227 448.27618 563.71753 446.40418 563.41506 444.5746 L 563.41506 444.5746 C 566.85876 442.39638 568.02407 437.59955 566.01787 433.86058 C 564.73332 431.46657 562.37976 429.98715 559.82798 429.9697 L 559.82798 429.9697 C 562.2549 423.259 559.21183 415.6828 553.0311 413.0478 C 550.81915 412.10478 548.39943 411.8946 546.07754 412.4438 L 546.07753 412.4438 C 544.6978 407.03997 539.54457 403.8737 534.56748 405.37173 C 531.5102 406.29194 529.0911 408.83233 528.14216 412.11925 L 528.14216 412.11925 C 523.64794 410.21631 518.56865 410.95162 514.69065 414.06657 L 514.69065 414.06657 C 512.01307 411.30305 507.7791 411.41949 505.23383 414.32665 C 503.39456 416.42741 502.88184 419.51442 503.92942 422.1804 L 503.92942 422.1804 C 499.942 416.62025 492.55813 415.62244 487.43707 419.95175 C 485.41647 421.65995 483.9651 424.03802 483.30374 426.72416 L 483.30374 426.72416 C 475.40152 421.39748 465.0184 424.03465 460.11237 432.61443 C 459.03896 434.49165 458.2878 436.56455 457.8953 438.73264 Z" stroke="black" stroke-opacity="0" stroke-linecap="round" stroke-linejoin="round" stroke-width="2.1600001"/><path d="M 479.25157 459.00001 L 508.50065 441.00092 M 508.50065 466.19966 L 508.50065 441.00092 M 537.74974 459.00001 L 508.50065 441.00092 M 552.37427 441.00092 L 508.50065 441.00092 M 537.74974 423.00182 L 508.50065 441.00092 M 508.50065 414.00227 L 508.50065 441.00092 M 488.3919 426.00166 L 508.50065 441.00092 M 464.62702 441.00092 L 508.50065 441.00092" stroke="#18356a" stroke-linecap="round" stroke-linejoin="round" stroke-width="2.1600001"/><path d="M 457.8953 433.94926 L 457.8953 433.94926 C 459.68918 422.80137 468.54203 415.5405 477.6687 417.73165 C 479.66557 418.21106 481.57477 419.12857 483.30374 420.4397 L 483.30374 420.4397 C 484.97988 412.7809 491.42165 408.23192 497.69183 410.27926 C 500.16585 411.08708 502.35612 412.85989 503.92942 415.32798 L 503.92942 415.32798 C 502.47973 411.17747 504.05913 406.37735 507.4571 404.60661 C 509.91256 403.32704 512.75578 403.9533 514.69065 406.1999 L 514.69065 406.1999 C 518.56865 402.69558 523.64794 401.86836 528.14216 404.00916 L 528.14216 404.00916 C 529.687 397.98937 534.93454 394.63904 539.8629 396.526 C 542.89023 397.6851 545.23 400.63993 546.07754 404.3743 L 546.07754 404.3743 C 552.5655 402.64785 558.97085 407.67262 560.38426 415.59743 C 560.8901 418.43354 560.6965 421.38913 559.82798 424.09093 L 559.82798 424.09093 C 563.81336 424.1216 567.0238 428.09276 566.99868 432.96075 C 566.9826 436.07767 565.62 438.95245 563.41506 440.52148 L 563.41506 440.52148 C 564.8937 450.58344 559.41444 460.2044 551.1768 462.0105 C 549.49172 462.37995 547.76756 462.39795 546.07754 462.06373 L 546.07754 462.06373 C 544.90428 466.15378 541.15493 468.16128 537.70314 466.5476 C 536.58746 466.02604 535.59363 465.1601 534.82482 464.03973 L 534.82482 464.03973 C 532.3216 470.33604 526.06774 473.10694 520.2003 470.5194 L 520.2003 470.5194 C 516.18293 472.66007 511.63496 473.12193 507.5451 471.8046 L 507.5451 471.8046 C 500.57774 479.35842 489.91624 478.58298 483.732 470.0726 C 483.4798 469.72552 483.23726 469.36815 483.00482 469.00107 L 483.00482 469.00107 C 480.81235 471.55473 477.3402 471.45392 475.24954 468.7759 C 474.22527 467.46388 473.68 465.70087 473.7382 463.88934 L 473.7382 463.88934 C 467.9244 467.24173 460.97663 464.72723 457.5964 458.04738 L 457.5964 458.04738 C 452.1686 456.31868 448.9158 449.54274 450.33107 442.9129 C 451.28678 438.43586 454.20274 434.98045 457.8953 433.94926 Z" fill="url(#Obj_Gradient_13)"/><path d="M 457.8953 433.94926 L 457.8953 433.94926 C 459.68918 422.80137 468.54203 415.5405 477.6687 417.73165 C 479.66557 418.21106 481.57477 419.12857 483.30374 420.4397 L 483.30374 420.4397 C 484.97988 412.7809 491.42165 408.23192 497.69183 410.27926 C 500.16585 411.08708 502.35612 412.85989 503.92942 415.32798 L 503.92942 415.32798 C 502.47973 411.17747 504.05913 406.37735 507.4571 404.60661 C 509.91256 403.32704 512.75578 403.9533 514.69065 406.1999 L 514.69065 406.1999 C 518.56865 402.69558 523.64794 401.86836 528.14216 404.00916 L 528.14216 404.00916 C 529.687 397.98937 534.93454 394.63904 539.8629 396.526 C 542.89023 397.6851 545.23 400.63993 546.07754 404.3743 L 546.07754 404.3743 C 552.5655 402.64785 558.97085 407.67262 560.38426 415.59743 C 560.8901 418.43354 560.6965 421.38913 559.82798 424.09093 L 559.82798 424.09093 C 563.81336 424.1216 567.0238 428.09276 566.99868 432.96075 C 566.9826 436.07767 565.62 438.95245 563.41506 440.52148 L 563.41506 440.52148 C 564.8937 450.58344 559.41444 460.2044 551.1768 462.0105 C 549.49172 462.37995 547.76756 462.39795 546.07754 462.06373 L 546.07754 462.06373 C 544.90428 466.15378 541.15493 468.16128 537.70314 466.5476 C 536.58746 466.02604 535.59363 465.1601 534.82482 464.03973 L 534.82482 464.03973 C 532.3216 470.33604 526.06774 473.10694 520.2003 470.5194 L 520.2003 470.5194 C 516.18293 472.66007 511.63496 473.12193 507.5451 471.8046 L 507.5451 471.8046 C 500.57774 479.35842 489.91624 478.58298 483.732 470.0726 C 483.4798 469.72552 483.23726 469.36815 483.00482 469.00107 L 483.00482 469.00107 C 480.81235 471.55473 477.3402 471.45392 475.24954 468.7759 C 474.22527 467.46388 473.68 465.70087 473.7382 463.88934 L 473.7382 463.88934 C 467.9244 467.24173 460.97663 464.72723 457.5964 458.04738 L 457.5964 458.04738 C 452.1686 456.31868 448.9158 449.54274 450.33107 442.9129 C 451.28678 438.43586 454.20274 434.98045 457.8953 433.94926 Z" stroke="black" stroke-linecap="round" stroke-linejoin="round" stroke-width="2.1600001"/><path d="M 470.52833 436.7626 L 470.52833 436.7626 C 471.89167 432.40253 478.61985 429.56273 485.55613 430.4197 C 487.07374 430.60721 488.52473 430.96606 489.83875 431.47886 L 489.83875 431.47886 C 491.1126 428.48342 496.00834 426.70427 500.77367 427.505 C 502.65393 427.82094 504.31855 428.51431 505.51426 429.47962 L 505.51426 429.47962 C 504.4125 427.8563 505.61284 425.97893 508.1953 425.28638 C 510.06144 424.78592 512.22228 425.03086 513.69277 425.90952 L 513.69277 425.90952 C 516.64007 424.53895 520.50033 424.21541 523.91594 425.0527 L 523.91595 425.0527 C 525.09002 422.6983 529.07815 421.38795 532.8237 422.12596 C 535.12447 422.5793 536.9027 423.73496 537.54682 425.1955 L 537.54682 425.1955 C 542.47767 424.52028 547.34573 426.4855 548.41994 429.58499 C 548.80437 430.69422 548.65725 431.8502 547.99716 432.9069 L 547.99716 432.9069 C 551.02605 432.9189 553.46598 434.47205 553.4469 436.37597 C 553.43467 437.59503 552.3991 438.7194 550.72334 439.33306 L 550.72334 439.33306 C 551.8471 443.2684 547.68288 447.03126 541.42228 447.73765 C 540.1416 447.88215 538.83123 447.8892 537.54682 447.75847 L 537.54682 447.75847 C 535.7183 449.40342 532.11456 449.80515 529.49767 448.65576 C 528.65184 448.28426 527.97963 447.7772 527.55084 447.18725 L 527.55083 447.18725 C 525.8682 449.87726 521.03495 451.2005 516.7555 450.14282 C 514.13792 449.49586 512.2169 448.06192 511.64814 446.33043 L 511.64814 446.33043 C 511.66152 448.2886 510.4447 450.17094 508.26218 451.56823 L 508.26218 451.56823 C 502.96696 454.5226 494.86422 454.21931 490.1642 450.8908 C 489.97253 450.75507 489.7882 450.6153 489.61156 450.47174 L 489.61156 450.47174 C 487.94528 451.4705 485.30644 451.43107 483.71755 450.38366 C 482.9391 449.87052 482.5247 449.18099 482.56894 448.47248 L 482.56894 448.47248 C 478.15044 449.78364 472.87013 448.8002 470.30114 446.18763 L 470.30114 446.18762 C 466.17602 445.51151 463.7039 442.86137 464.7795 440.26837 C 465.50584 438.51736 467.72197 437.1659 470.52833 436.7626 Z" fill="url(#Obj_Gradient_14)"/><text transform="translate(469.52789 427.0081)" fill="#b1001c"><tspan font-family="Helvetica Neue" font-size="18" font-weight="500" fill="#b1001c" x="8.625559" y="17" textLength="36">Inter</tspan><tspan font-family="Helvetica Neue" font-size="18" font-weight="500" fill="#b1001c" x="44.94956" y="17" textLength="25.344">net</tspan></text><path d="M 805.29464 619.14366 L 819 611.75972 L 819 568.50884 L 799.37553 558.00157 L 767.9764 575.10643 L 767.98797 619.04163 L 767.98797 619.04163 C 773.0482 624.2895 779.8831 627.75737 787.35137 628.86615 L 793.4882 625.50454 L 793.4882 625.6739 L 815.35546 638.61024 L 815.34623 625.19535 L 805.29464 619.14366 Z M 776.68804 581.94895 L 776.68804 581.94895 C 779.98945 583.76186 783.59435 585.04235 787.35137 585.73667 L 787.35137 585.73667 C 783.5923 585.04897 779.98626 583.76806 776.68804 581.94895 Z" fill="#fc00ff" fill-opacity="0"/><path d="M 805.29464 619.14366 L 819 611.75972 L 819 568.50884 L 799.37553 558.00157 L 767.9764 575.10643 L 767.98797 619.04163 L 767.98797 619.04163 C 773.0482 624.2895 779.8831 627.75737 787.35137 628.86615 L 793.4882 625.50454 L 793.4882 625.6739 L 815.35546 638.61024 L 815.34623 625.19535 L 805.29464 619.14366 Z M 776.68804 581.94895 L 776.68804 581.94895 C 779.98945 583.76186 783.59435 585.04235 787.35137 585.73667 L 787.35137 585.73667 C 783.5923 585.04897 779.98626 583.76806 776.68804 581.94895 Z" stroke="black" stroke-opacity="0" stroke-linecap="round" stroke-linejoin="round" stroke-width=".72000003"/><path d="M 787.3392 585.73588 L 819 568.50884 L 799.37553 558.00156 L 767.9764 575.10643 L 767.9764 575.10643 C 772.9628 580.5927 779.79227 584.3397 787.35137 585.73666" fill="url(#Obj_Gradient_15)"/><path d="M 787.3392 585.73588 L 819 568.50884 L 799.37553 558.00156 L 767.9764 575.10643 L 767.9764 575.10643 C 772.9628 580.5927 779.79227 584.3397 787.35137 585.73666" stroke="white" stroke-linecap="round" stroke-linejoin="round" stroke-width=".36000001"/><path d="M 787.35136 585.73666 L 787.35136 585.73666 C 779.77828 584.3512 772.94336 580.58146 767.98797 575.0569 L 767.98797 619.04162 L 767.98797 619.04162 C 773.04818 624.2895 779.8831 627.75738 787.35136 628.86614 L 787.3392 585.73588" fill="url(#Obj_Gradient_16)"/><path d="M 787.35136 585.73666 L 787.35136 585.73666 C 779.77828 584.3512 772.94336 580.58146 767.98797 575.0569 L 767.98797 619.04162 L 767.98797 619.04162 C 773.04818 624.2895 779.8831 627.75738 787.35136 628.86614 L 787.3392 585.73588" stroke="white" stroke-linecap="round" stroke-linejoin="round" stroke-width=".36000001"/><path d="M 787.3392 585.73588 L 787.3392 628.8174 L 819 611.7597 L 819 568.50883 Z" fill="url(#Obj_Gradient_17)"/><path d="M 787.3392 585.73588 L 787.3392 628.8174 L 819 611.7597 L 819 568.50883 Z" stroke="white" stroke-linecap="round" stroke-linejoin="round" stroke-width=".36000001"/><path d="M 819 568.50728 L 799.37553 558 L 767.9764 575.10487 L 767.98797 619.04006 L 767.98797 619.04006 C 773.0482 624.28794 779.8831 627.7558 787.35137 628.86458 L 819 611.75815 L 819 568.50728 Z" stroke="black" stroke-linecap="round" stroke-linejoin="round" stroke-width="1"/><path d="M 777.38335 601.98095 C 778.19736 602.524 778.6347 603.7256 778.3602 604.66483 C 778.0857 605.60406 777.2033 605.92523 776.3893 605.3822 C 775.5753 604.83915 775.13793 603.63753 775.41244 602.6983 C 775.68694 601.75908 776.56935 601.4379 777.38335 601.98095" fill="url(#Obj_Gradient_18)"/><path d="M 777.38335 601.98095 C 778.19736 602.524 778.6347 603.7256 778.3602 604.66483 C 778.0857 605.60406 777.2033 605.92523 776.3893 605.3822 C 775.5753 604.83915 775.13793 603.63753 775.41244 602.6983 C 775.68694 601.75908 776.56935 601.4379 777.38335 601.98095" stroke="black" stroke-linecap="round" stroke-linejoin="round" stroke-width=".36000001"/><path d="M 771.1163 610.6601 L 771.1163 610.6601 C 775.0178 613.86506 779.47467 616.15423 784.1993 617.37988 M 771.1163 613.28693 L 771.1163 613.28693 C 775.0178 616.49188 779.47467 618.78105 784.1993 620.0067 M 771.1163 615.91375 L 771.1163 615.91375 C 775.0178 619.1187 779.47467 621.40787 784.1993 622.63352" stroke="black" stroke-linecap="round" stroke-linejoin="round" stroke-width=".60000002"/><path d="M 771.0593 584.5308 L 771.0593 584.5308 C 774.81323 587.6748 779.2888 589.97356 784.1423 591.25056 L 784.1423 591.25056 C 784.50356 591.17465 784.73053 590.8396 784.64925 590.50222 C 784.5924 590.2662 784.395 590.0819 784.1423 590.02878 L 784.1423 590.02878 C 779.3886 588.80266 775.0013 586.57015 771.32096 583.5045 L 771.32096 583.5045 C 771.14415 583.35307 770.86937 583.36417 770.7072 583.5293 C 770.6222 583.61587 770.58153 583.73263 770.59576 583.84936 L 770.59576 583.84936 C 770.62373 584.13297 770.7963 584.38663 771.0593 584.5308 Z" fill="url(#Obj_Gradient_19)"/><path d="M 771.0593 584.5308 L 771.0593 584.5308 C 774.81323 587.6748 779.2888 589.97356 784.1423 591.25056 L 784.1423 591.25056 C 784.50356 591.17465 784.73053 590.8396 784.64925 590.50222 C 784.5924 590.2662 784.395 590.0819 784.1423 590.02878 L 784.1423 590.02878 C 779.3886 588.80266 775.0013 586.57015 771.32096 583.5045 L 771.32096 583.5045 C 771.14415 583.35307 770.86937 583.36417 770.7072 583.5293 C 770.6222 583.61587 770.58153 583.73263 770.59576 583.84936 L 770.59576 583.84936 C 770.62373 584.13297 770.7963 584.38663 771.0593 584.5308 Z" stroke="black" stroke-linecap="butt" stroke-linejoin="miter" stroke-width=".39062"/><path d="M 778.77826 589.66055 L 778.77826 589.66055 C 777.9715 587.4199 776.2541 586.56454 774.85336 587.7057 L 774.85336 587.7057 C 774.41414 588.56657 775.4578 589.44196 777.1845 589.66095 C 777.70745 589.72727 778.25543 589.72714 778.77826 589.66055 Z" fill="url(#Obj_Gradient_1a)"/><path d="M 778.77826 589.66055 L 778.77826 589.66055 C 777.9715 587.4199 776.2541 586.56454 774.85336 587.7057 L 774.85336 587.7057 C 774.41414 588.56657 775.4578 589.44196 777.1845 589.66095 C 777.70745 589.72727 778.25543 589.72714 778.77826 589.66055 Z" stroke="black" stroke-linecap="butt" stroke-linejoin="miter" stroke-width=".39062"/><path d="M 771.1163 588.11834 L 771.1163 591.5393 L 771.1163 591.5393 C 774.9178 594.62014 779.37743 596.91073 784.19927 598.25908 L 784.19927 594.8381 L 784.19927 594.8381 C 779.3908 593.4601 774.93745 591.17274 771.1163 588.11834 Z" fill="url(#Obj_Gradient_1b)"/><path d="M 771.1163 589.64556 L 771.1163 589.64556 C 774.85168 592.8139 779.3337 595.11598 784.19927 596.36533 L 784.19927 595.5101 L 784.19927 595.5101 C 779.3776 594.16137 774.91803 591.87082 771.1163 588.79032 L 771.1163 589.64556 Z" fill="url(#Obj_Gradient_1c)"/><path d="M 793.4882 625.67388 L 815.35546 638.61023 L 815.34623 625.19534 L 793.4882 612.03543 L 793.4882 625.67388 Z" fill="url(#Obj_Gradient_1d)"/><path d="M 815.35546 625.32283 L 806.9769 627.28362 L 806.9769 627.28362 C 805.2326 627.7339 803.47967 626.76083 801.9141 624.47315 L 793.4882 612.03543 M 815.35546 638.61023 L 806.977 627.28422 M 801.9141 624.47315 L 793.4882 625.32283" stroke="#4984a4" stroke-linecap="butt" stroke-linejoin="miter" stroke-width=".39062"/><path d="M 929.4803 718.86615 L 941.8819 711.77954 L 941.8819 708.23623 L 913.1811 691.7953 L 901.13386 700.44095 L 901.13386 702.56694 L 929.4803 718.86615 Z M 931.24975 650.25046 L 931.24975 682.48404 L 931.24975 682.48404 C 934.27346 685.15704 937.4962 687.62395 940.8933 689.86586 L 940.8933 689.86586 C 939.50403 692.5027 938.94745 695.45804 939.2893 698.38256 L 939.2893 698.38256 C 943.7459 707.14253 954.9186 710.8503 964.24434 706.6641 C 967.04583 705.40652 969.4702 703.51398 971.299 701.157 L 971.299 701.157 C 971.9381 699.16995 972.1432 697.0821 971.902 695.0188 L 971.902 695.0188 C 971.39593 690.68966 968.96326 686.76386 965.20575 684.2125 L 965.2182 665.36013 L 965.2182 665.36013 C 956.7114 657.5197 946.4316 651.58465 935.1496 648 L 931.24975 650.25046 L 931.24975 650.25046 C 942.57927 653.74568 952.8924 659.6721 961.3701 667.55906 L 961.3701 667.55906 C 952.7915 659.79408 942.51 653.8858 931.24975 650.25046 Z" fill="#fc00ff" fill-opacity="0"/><path d="M 929.4803 718.86615 L 941.8819 711.77954 L 941.8819 708.23623 L 913.1811 691.7953 L 901.13386 700.44095 L 901.13386 702.56694 L 929.4803 718.86615 Z M 931.24975 650.25046 L 931.24975 682.48404 L 931.24975 682.48404 C 934.27346 685.15704 937.4962 687.62395 940.8933 689.86586 L 940.8933 689.86586 C 939.50403 692.5027 938.94745 695.45804 939.2893 698.38256 L 939.2893 698.38256 C 943.7459 707.14253 954.9186 710.8503 964.24434 706.6641 C 967.04583 705.40652 969.4702 703.51398 971.299 701.157 L 971.299 701.157 C 971.9381 699.16995 972.1432 697.0821 971.902 695.0188 L 971.902 695.0188 C 971.39593 690.68966 968.96326 686.76386 965.20575 684.2125 L 965.2182 665.36013 L 965.2182 665.36013 C 956.7114 657.5197 946.4316 651.58465 935.1496 648 L 931.24975 650.25046 L 931.24975 650.25046 C 942.57927 653.74568 952.8924 659.6721 961.3701 667.55906 L 961.3701 667.55906 C 952.7915 659.79408 942.51 653.8858 931.24975 650.25046 Z" stroke="black" stroke-opacity="0" stroke-linecap="round" stroke-linejoin="round" stroke-width=".72000003"/><path d="M 971.902 695.0188 L 971.902 695.0188 C 970.9131 686.55937 962.8109 680.45468 953.80513 681.38356 C 944.7994 682.31245 938.30043 689.92316 939.2893 698.38257 C 939.2893 698.38257 939.2893 698.38257 939.2893 698.38257 L 939.2893 698.38257 C 943.7459 707.14254 954.91865 710.8503 964.24436 706.66407 C 967.04585 705.4065 969.4702 703.51397 971.299 701.157 L 971.299 701.157 C 971.9381 699.16995 972.1432 697.0821 971.902 695.0188 Z" fill="url(#Obj_Gradient_1e)"/><path d="M 971.902 695.0188 L 971.902 695.0188 C 970.9131 686.55937 962.8109 680.45468 953.80513 681.38356 C 944.7994 682.31245 938.30043 689.92316 939.2893 698.38257 C 939.2893 698.38257 939.2893 698.38257 939.2893 698.38257 L 939.2893 698.38257 C 943.7459 707.14254 954.91865 710.8503 964.24436 706.66407 C 967.04585 705.4065 969.4702 703.51397 971.299 701.157 L 971.299 701.157 C 971.9381 699.16995 972.1432 697.0821 971.902 695.0188 Z" stroke="white" stroke-linecap="round" stroke-linejoin="round" stroke-width=".72000003"/><path d="M 961.3701 699.87403 L 965.19685 697.6772 L 965.2182 665.36013 L 961.3701 667.55907 Z" fill="url(#Obj_Gradient_1f)"/><path d="M 961.3701 699.87403 L 965.19685 697.6772 L 965.2182 665.36013 L 961.3701 667.55907 Z" stroke="white" stroke-linecap="round" stroke-linejoin="round" stroke-width=".72000003"/><path d="M 931.24976 650.25047 L 931.24976 650.25047 C 942.5793 653.7457 952.8924 659.6721 961.3701 667.55907 L 965.2182 665.36013 L 965.2182 665.36013 C 956.7114 657.5197 946.4316 651.58465 935.1496 648 L 931.24976 650.25047 Z" fill="url(#Obj_Gradient_20)"/><path d="M 931.24976 650.25047 L 931.24976 650.25047 C 942.5793 653.7457 952.8924 659.6721 961.3701 667.55907 L 965.2182 665.36013 L 965.2182 665.36013 C 956.7114 657.5197 946.4316 651.58465 935.1496 648 L 931.24976 650.25047 Z" stroke="white" stroke-linecap="round" stroke-linejoin="round" stroke-width=".72000003"/><path d="M 931.24976 682.48404 L 931.24976 682.48404 C 939.92416 690.15233 950.176 696.0712 961.3701 699.874 L 961.3701 667.55906 L 961.3701 667.55906 C 952.7915 659.79407 942.51 653.8858 931.24976 650.25046 L 931.24976 682.48404 Z" fill="url(#Obj_Gradient_21)"/><path d="M 931.24976 682.48404 L 931.24976 682.48404 C 939.92416 690.15233 950.176 696.0712 961.3701 699.874 L 961.3701 667.55906 L 961.3701 667.55906 C 952.7915 659.79407 942.51 653.8858 931.24976 650.25046 L 931.24976 682.48404 Z" stroke="black" stroke-linecap="round" stroke-linejoin="round" stroke-width=".72000003"/><path d="M 931.24975 682.48404 L 931.24975 682.48404 C 934.2106 685.1217 937.3258 687.60175 940.5805 689.9124 L 940.5805 689.9124 C 939.6193 692.62676 939.2436 695.49386 939.4754 698.34616 L 939.4754 698.34616 C 943.81985 707.04646 954.8502 710.79123 964.1124 706.71033 C 966.9666 705.4528 969.43185 703.5318 971.27485 701.12926 L 971.27485 701.12926 C 973.0649 694.8445 970.6731 688.1777 965.20575 684.2125 L 965.2182 665.36012 L 965.2182 665.3601 C 956.7114 657.5197 946.4316 651.58465 935.1496 648 L 931.24975 650.25046 L 931.24975 682.48404 Z" stroke="black" stroke-linecap="round" stroke-linejoin="round" stroke-width="1.5"/><path d="M 934.1575 654.23622 L 934.1575 681.874 L 958.5354 696.0345" stroke="white" stroke-linecap="round" stroke-linejoin="round" stroke-width=".72000003"/><path d="M 901.13386 700.44095 L 913.1811 691.7953 L 941.8819 708.2362 L 929.4803 716.74016 Z" fill="url(#Obj_Gradient_22)"/><path d="M 901.13386 700.44095 L 913.1811 691.7953 L 941.8819 708.2362 L 929.4803 716.74016 Z" stroke="white" stroke-linecap="round" stroke-linejoin="round" stroke-width=".72000003"/><path d="M 929.4803 718.86615 L 929.4803 716.74017 L 941.8819 708.23623 L 941.8819 711.77954 Z" fill="url(#Obj_Gradient_23)"/><path d="M 929.4803 718.86615 L 929.4803 716.74017 L 941.8819 708.23623 L 941.8819 711.77954 Z" stroke="white" stroke-linecap="round" stroke-linejoin="round" stroke-width=".72000003"/><path d="M 904.67717 699.96625 L 906.67243 701.11857 L 908.3355 700.0582 L 906.34 698.90536 L 904.67717 699.96625 Z M 907.14807 698.35213 L 909.14333 699.50445 L 910.8064 698.4441 L 908.8109 697.29124 L 907.14807 698.35213 Z M 909.61897 696.738 L 911.61423 697.89033 L 913.2773 696.83 L 911.2818 695.6771 L 909.61897 696.738 Z M 912.08987 695.1239 L 914.08513 696.2762 L 915.7482 695.21586 L 913.7527 694.063 L 912.08987 695.1239 Z M 915.7959 697.29094 L 917.79114 698.44326 L 919.45423 697.3829 L 917.4587 696.23005 L 915.7959 697.29094 Z M 919.5019 699.458 L 921.49715 700.6103 L 923.16023 699.54996 L 921.16473 698.3971 L 919.5019 699.458 Z M 923.2079 701.62504 L 925.20315 702.77736 L 926.86624 701.717 L 924.8707 700.56415 L 923.2079 701.62504 Z M 930.6199 705.95914 L 932.61516 707.11146 L 934.27825 706.0511 L 932.28274 704.89825 L 930.6199 705.95914 Z M 934.3259 708.1262 L 936.32117 709.2785 L 937.98426 708.21816 L 935.98875 707.0653 L 934.3259 708.1262 Z M 931.855 709.7403 L 933.85027 710.89263 L 935.51335 709.8323 L 933.51785 708.67943 L 931.855 709.7403 Z M 928.149 707.57326 L 930.14426 708.7256 L 931.80735 707.66523 L 929.81184 706.51237 L 928.149 707.57326 Z M 926.9139 703.7921 L 928.90916 704.9444 L 930.57224 703.88406 L 928.57674 702.7312 L 926.9139 703.7921 Z M 924.443 705.4062 L 926.43826 706.55853 L 928.10134 705.4982 L 926.10584 704.3453 L 924.443 705.4062 Z M 920.737 703.23916 L 922.73225 704.3915 L 924.39534 703.33113 L 922.39983 702.17827 L 920.737 703.23916 Z M 917.031 701.0721 L 919.02624 702.22443 L 920.68933 701.1641 L 918.6938 700.0112 L 917.031 701.0721 Z M 913.325 698.90506 L 915.32024 700.0574 L 916.9833 698.99703 L 914.9878 697.84417 L 913.325 698.90506 Z M 910.8541 700.5192 L 912.84934 701.6715 L 914.5124 700.61115 L 912.5169 699.4583 L 910.8541 700.5192 Z M 914.5601 702.68623 L 916.55534 703.83855 L 918.21843 702.7782 L 916.2229 701.62534 L 914.5601 702.68623 Z M 918.2661 704.8533 L 920.26135 706.0056 L 921.92443 704.94525 L 919.92893 703.7924 L 918.2661 704.8533 Z M 921.9721 707.02033 L 923.96736 708.17265 L 925.63044 707.1123 L 923.63493 705.95945 L 921.9721 707.02033 Z M 925.6781 709.1874 L 927.67336 710.3397 L 929.33645 709.27936 L 927.34094 708.1265 L 925.6781 709.1874 Z M 929.3841 711.35443 L 931.37937 712.50675 L 933.04245 711.4464 L 931.04695 710.29355 L 929.3841 711.35443 Z M 926.9132 712.96855 L 928.90847 714.12087 L 930.57155 713.06053 L 928.57605 711.90767 L 926.9132 712.96855 Z M 923.2072 710.8015 L 925.20246 711.9538 L 926.86555 710.8935 L 924.87004 709.7406 L 923.2072 710.8015 Z M 912.0891 704.30023 L 921.49645 709.78677 L 923.15954 708.72643 L 913.75196 703.23934 L 912.0891 704.30023 Z M 908.3832 702.1333 L 910.37843 703.2856 L 912.0415 702.22527 L 910.046 701.0724 L 908.3832 702.1333 Z" fill="url(#Obj_Gradient_24)"/><path d="M 912.0909 695.584 L 914.0863 696.737 L 914.08627 696.27603 L 912.09066 695.12245 L 912.0909 695.584 Z M 915.79674 697.75187 L 917.7921 698.90485 L 917.7921 698.4439 L 915.7965 697.2903 L 915.79674 697.75187 Z M 919.50257 699.91824 L 921.49796 701.0712 L 921.49795 700.61025 L 919.50234 699.45667 L 919.50257 699.91824 Z M 923.2084 702.08535 L 925.2038 703.23833 L 925.2038 702.77736 L 923.20817 701.6238 L 923.2084 702.08535 Z M 926.91425 704.25246 L 928.9096 705.40544 L 928.9096 704.94447 L 926.914 703.7909 L 926.91425 704.25246 Z M 930.62015 706.4203 L 932.61554 707.5733 L 932.6155 707.11233 L 930.6199 705.95874 L 930.62015 706.4203 Z M 914.0853 696.2749 L 914.08536 696.7361 L 915.74824 695.67566 L 915.7483 695.21465 L 914.0853 696.2749 Z M 917.79127 698.4422 L 917.79134 698.90335 L 919.4542 697.8429 L 919.4543 697.3819 L 917.79127 698.4422 Z M 921.49725 700.60944 L 921.49733 701.0706 L 923.1602 700.0102 L 923.16027 699.54917 L 921.49725 700.60944 Z M 925.20324 702.7767 L 925.2033 703.23787 L 926.8662 702.17745 L 926.86625 701.71644 L 925.20324 702.7767 Z M 928.9092 704.94396 L 928.9093 705.40513 L 930.5722 704.3447 L 930.5722 703.8837 L 928.9092 704.94396 Z M 932.6152 707.11123 L 932.6153 707.5724 L 934.27816 706.51197 L 934.2782 706.05096 L 932.6152 707.11123 Z M 934.3259 708.5867 L 936.3213 709.73966 L 936.3213 709.2787 L 934.3257 708.1251 L 934.3259 708.5867 Z M 936.3212 709.2785 L 936.32126 709.73966 L 937.98414 708.67923 L 937.9842 708.2182 L 936.3212 709.2785 Z M 909.62 697.19814 L 911.6154 698.3511 L 911.61537 697.89015 L 909.61976 696.73657 L 909.62 697.19814 Z M 913.32583 699.366 L 915.3212 700.51897 L 915.3212 700.058 L 913.3256 698.9044 L 913.32583 699.366 Z M 917.03167 701.53236 L 919.02706 702.68534 L 919.02704 702.22437 L 917.03144 701.0708 L 917.03167 701.53236 Z M 920.7375 703.69947 L 922.7329 704.85245 L 922.7329 704.3915 L 920.73727 703.2379 L 920.7375 703.69947 Z M 924.44334 705.8666 L 926.4387 707.01956 L 926.4387 706.5586 L 924.4431 705.405 L 924.44334 705.8666 Z M 928.14925 708.03443 L 930.1446 709.1874 L 930.1446 708.72645 L 928.149 707.57286 L 928.14925 708.03443 Z M 911.6144 697.88904 L 911.61446 698.3502 L 913.27734 697.2898 L 913.2774 696.82877 L 911.6144 697.88904 Z M 915.32037 700.0563 L 915.32044 700.51747 L 916.9833 699.45704 L 916.9834 698.99603 L 915.32037 700.0563 Z M 919.02635 702.22356 L 919.02643 702.68473 L 920.6893 701.6243 L 920.68937 701.1633 L 919.02635 702.22356 Z M 922.73234 704.3908 L 922.7324 704.852 L 924.3953 703.79157 L 924.39535 703.33056 L 922.73234 704.3908 Z M 926.4383 706.5581 L 926.4384 707.01926 L 928.1013 705.95883 L 928.1013 705.4978 L 926.4383 706.5581 Z M 930.1443 708.72535 L 930.1444 709.1865 L 931.80726 708.1261 L 931.8073 707.6651 L 930.1443 708.72535 Z M 931.855 710.2008 L 933.8504 711.3538 L 933.8504 710.8928 L 931.8548 709.73923 L 931.855 710.2008 Z M 933.8503 710.8926 L 933.85036 711.3538 L 935.51324 710.29335 L 935.5133 709.83234 L 933.8503 710.8926 Z M 907.1491 698.81226 L 909.1445 699.96524 L 909.14447 699.50427 L 907.14886 698.3507 L 907.1491 698.81226 Z M 910.85493 700.9801 L 912.8503 702.1331 L 912.8503 701.67213 L 910.8547 700.51854 L 910.85493 700.9801 Z M 914.56077 703.1465 L 916.55616 704.29946 L 916.55614 703.8385 L 914.56053 702.6849 L 914.56077 703.1465 Z M 918.2666 705.3136 L 920.262 706.46657 L 920.262 706.0056 L 918.26637 704.852 L 918.2666 705.3136 Z M 921.97244 707.4807 L 923.9678 708.6337 L 923.9678 708.1727 L 921.9722 707.01913 L 921.97244 707.4807 Z M 925.67834 709.64855 L 927.6737 710.80153 L 927.6737 710.34057 L 925.6781 709.187 L 925.67834 709.64855 Z M 909.1435 699.50316 L 909.14356 699.96433 L 910.80644 698.9039 L 910.8065 698.4429 L 909.1435 699.50316 Z M 912.84947 701.6704 L 912.84954 702.1316 L 914.5124 701.07116 L 914.5125 700.61015 L 912.84947 701.6704 Z M 916.55545 703.8377 L 916.5555 704.29885 L 918.2184 703.23843 L 918.21846 702.7774 L 916.55545 703.8377 Z M 920.26143 706.00494 L 920.2615 706.4661 L 921.9244 705.4057 L 921.92445 704.9447 L 920.26143 706.00494 Z M 923.9674 708.1722 L 923.9675 708.6334 L 925.63037 707.57295 L 925.6304 707.11194 L 923.9674 708.1722 Z M 927.6734 710.33947 L 927.6735 710.80064 L 929.33636 709.7402 L 929.3364 709.2792 L 927.6734 710.33947 Z M 929.3841 711.8149 L 931.3795 712.9679 L 931.3795 712.50694 L 929.3839 711.35335 L 929.3841 711.8149 Z M 931.3794 712.50673 L 931.37946 712.9679 L 933.04234 711.90747 L 933.0424 711.44646 L 931.3794 712.50673 Z M 904.6782 700.4264 L 906.6736 701.57936 L 906.67357 701.1184 L 904.67796 699.9648 L 904.6782 700.4264 Z M 908.38403 702.59423 L 910.3794 703.7472 L 910.3794 703.28625 L 908.3838 702.13266 L 908.38403 702.59423 Z M 912.08987 704.7606 L 921.49733 710.2478 L 921.4973 709.78683 L 912.08963 704.29903 L 912.08987 704.7606 Z M 923.20744 711.26267 L 925.2028 712.41565 L 925.2028 711.9547 L 923.2072 710.8011 L 923.20744 711.26267 Z M 906.6726 701.1173 L 906.67266 701.57845 L 908.33554 700.518 L 908.3356 700.057 L 906.6726 701.1173 Z M 910.37856 703.28454 L 910.37864 703.7457 L 912.0415 702.6853 L 912.0416 702.22427 L 910.37856 703.28454 Z M 921.4965 709.7863 L 921.4966 710.2475 L 923.15947 709.18707 L 923.1595 708.72606 L 921.4965 709.7863 Z M 925.2025 711.9536 L 925.2026 712.41476 L 926.86546 711.35433 L 926.8655 710.8933 L 925.2025 711.9536 Z M 926.9132 713.42904 L 928.9086 714.582 L 928.9086 714.12106 L 926.913 712.96747 L 926.9132 713.42904 Z M 928.9085 714.12085 L 928.90856 714.582 L 930.57144 713.5216 L 930.5715 713.0606 L 928.9085 714.12085 Z" fill="#848484"/><path d="M 901.13386 702.56694 L 929.4803 718.86615 L 929.4803 716.74017 L 901.13386 700.44095 Z" fill="url(#Obj_Gradient_25)"/><path d="M 901.13386 702.56694 L 929.4803 718.86615 L 929.4803 716.74017 L 901.13386 700.44095 Z" stroke="black" stroke-linecap="round" stroke-linejoin="round" stroke-width=".72000003"/><path d="M 901.13386 700.44095 L 913.1811 691.7953 L 941.8819 708.23623 L 941.8819 711.77954 L 929.4803 718.86615 L 901.13386 702.56694 Z" stroke="black" stroke-linecap="round" stroke-linejoin="round" stroke-width="1.5"/><path d="M 934.7669 681.4051 L 958.5354 695.1985 L 958.5354 668.26772 L 934.7669 654.5706 L 934.7669 681.4051 Z" fill="url(#Obj_Gradient_26)"/><path d="M 934.7669 681.4051 L 958.5354 695.1985 L 958.5354 668.26772 L 934.7669 654.5706 L 934.7669 681.4051 Z M 958.5354 695.1985 L 958.5354 696.45247 M 934.7669 654.5706 L 934.1575 654.23622" stroke="black" stroke-linecap="round" stroke-linejoin="round" stroke-width=".72000003"/><rect x="189" y="246.5055" width="72" height="63" id="path"/><clipPath id="clip_path"><use xl:href="#path"/></clipPath><g clip-path="url(#clip_path)"><image xl:href="image2.tiff" width="204" height="247" transform="matrix(.35294118 0 0 .25506073 189 246.5055)"/></g><rect x="914.06693" y="603" width="45" height="36" id="path_2"/><clipPath id="clip_path_2"><use xl:href="#path_2"/></clipPath><g clip-path="url(#clip_path_2)"><image xl:href="image3.tiff" width="204" height="247" transform="matrix(.22058824 0 0 .14574899 914.06693 603)"/></g><rect x="630" y="504" width="72" height="63" id="path_3"/><clipPath id="clip_path_3"><use xl:href="#path_3"/></clipPath><g clip-path="url(#clip_path_3)"><image xl:href="image5.tiff" width="204" height="247" transform="matrix(.35294118 0 0 .25506073 630 504)"/></g><g id="id12_Graphic"><line x1="158.4" y1="477" x2="291.6" y2="477" marker-end="url(#DimensionArrow_Marker)" marker-start="url(#DimensionArrow_Marker_2)" stroke="olive" stroke-linecap="round" stroke-linejoin="round" stroke-width="2"/></g><g id="id2510_Graphic"><line x1="401.4" y1="477" x2="417.6" y2="477" marker-end="url(#DimensionArrow_Marker)" marker-start="url(#DimensionArrow_Marker_2)" stroke="olive" stroke-linecap="round" stroke-linejoin="round" stroke-width="2"/></g><g id="id2516_Graphic"><line x1="599.4" y1="720" x2="732.6" y2="720" marker-end="url(#DimensionArrow_Marker_3)" marker-start="url(#DimensionArrow_Marker_4)" stroke="olive" stroke-linecap="round" stroke-linejoin="round" stroke-width="2"/></g><text transform="translate(202.5 500)" fill="#b1001c"><tspan font-family="Helvetica" font-size="16" font-weight="bold" fill="#b1001c" x="0" y="15" textLength="44.445312">SMTP</tspan></text><text transform="translate(387 500)" fill="#b1001c"><tspan font-family="Helvetica" font-size="16" font-weight="bold" fill="#b1001c" x="0" y="15" textLength="44.445312">SMTP</tspan></text><text transform="translate(643.5 743)" fill="#b1001c"><tspan font-family="Helvetica" font-size="16" font-weight="bold" fill="#b1001c" x="0" y="15" textLength="44.445312">SMTP</tspan></text><path d="M 598.5 239.07795 C 598.5 218.18922 534.09456 201.2967 454.5 201.2967 C 374.90544 201.2967 310.5 218.18922 310.5 239.07795 C 310.5 256.87908 357.74928 271.86417 421.17264 275.76924 C 415.96848 282.49035 407.39184 290.39163 393.8904 294.2967 C 419.90544 294.2967 445.64112 285.03297 463.21776 276.76806 C 538.73424 275.5879 598.5 259.14921 598.5 239.07795 Z" fill="white"/><path d="M 598.5 239.07795 C 598.5 218.18922 534.09456 201.2967 454.5 201.2967 C 374.90544 201.2967 310.5 218.18922 310.5 239.07795 C 310.5 256.87908 357.74928 271.86417 421.17264 275.76924 C 415.96848 282.49035 407.39184 290.39163 393.8904 294.2967 C 419.90544 294.2967 445.64112 285.03297 463.21776 276.76806 C 538.73424 275.5879 598.5 259.14921 598.5 239.07795 Z" stroke="#005c5d" stroke-linecap="round" stroke-linejoin="round" stroke-width="1"/><text transform="translate(311 212)" fill="#235e00"><tspan font-family="PingFang SC" font-size="16" font-weight="500" fill="#235e00" x="99.412" y="17" textLength="88.176">ISP</tspan><tspan font-family="PingFang SC" font-size="16" font-weight="500" fill="#235e00" x="0" y="39" textLength="286.816">SMTP/POP3</tspan></text><text transform="translate(72.56693 256)" fill="#6d5000"><tspan font-family="Helvetica" font-size="16" font-weight="bold" fill="#6d5000" x="0" y="15" textLength="36.4375">MUA</tspan></text><text transform="translate(333.01181 401.38976)" fill="#6d5000"><tspan font-family="Helvetica" font-size="16" font-weight="bold" fill="#6d5000" x="0" y="15" textLength="23.101562">MT</tspan><tspan font-family="Helvetica" font-size="16" font-weight="bold" fill="#6d5000" x="21.921875" y="15" textLength="11.5546875">A</tspan></text><g id="id43_Graphic"><line x1="144" y1="232.86615" x2="144" y2="477" stroke="black" stroke-linecap="round" stroke-linejoin="round" stroke-width="1" stroke-dasharray="1,5"/></g><g id="id2524_Graphic"><line x1="585" y1="486" x2="585" y2="720" stroke="black" stroke-linecap="round" stroke-linejoin="round" stroke-width="1" stroke-dasharray="1,5"/></g><g id="id2525_Graphic"><line x1="306" y1="315" x2="306" y2="477" stroke="black" stroke-linecap="round" stroke-linejoin="round" stroke-width="1" stroke-dasharray="1,5"/></g><g id="id2526_Graphic"><line x1="747" y1="585" x2="747" y2="720" stroke="black" stroke-linecap="round" stroke-linejoin="round" stroke-width="1" stroke-dasharray="1,5"/></g><g id="id2527_Graphic"><line x1="387" y1="387" x2="387" y2="477" stroke="black" stroke-linecap="round" stroke-linejoin="round" stroke-width="1" stroke-dasharray="1,5"/></g><g id="id2528_Graphic"><line x1="432" y1="405.38976" x2="432" y2="477" stroke="black" stroke-linecap="round" stroke-linejoin="round" stroke-width="1" stroke-dasharray="1,5"/></g><path d="M 315 88.78125 C 315 67.89252 254.6199 51 180 51 C 105.3801 51 45 67.89252 45 88.78125 C 45 106.58238 89.2962 121.56747 148.7556 125.47254 C 143.8767 132.19365 135.8361 140.09493 123.1785 144 C 147.5676 144 171.6948 134.73627 188.1729 126.47136 C 258.9696 125.29119 315 108.85251 315 88.78125 Z" fill="white"/><path d="M 315 88.78125 C 315 67.89252 254.6199 51 180 51 C 105.3801 51 45 67.89252 45 88.78125 C 45 106.58238 89.2962 121.56747 148.7556 125.47254 C 143.8767 132.19365 135.8361 140.09493 123.1785 144 C 147.5676 144 171.6948 134.73627 188.1729 126.47136 C 258.9696 125.29119 315 108.85251 315 88.78125 Z" stroke="#005c5d" stroke-linecap="round" stroke-linejoin="round" stroke-width="1"/><text transform="translate(90.5 68)" fill="#235e00"><tspan font-family="PingFang SC" font-size="16" font-weight="500" fill="#235e00" x="0" y="17" textLength="176"></tspan><tspan font-family="PingFang SC" font-size="16" font-weight="500" fill="#235e00" x="11.14" y="39" textLength="156.72">FormalOutlook</tspan></text><path d="M 1012.5 484.78125 C 1012.5 463.89252 948.09456 447 868.5 447 C 788.90544 447 724.5 463.89252 724.5 484.78125 C 724.5 502.58238 771.7493 517.56747 835.17264 521.47254 C 829.9685 528.19365 821.39184 536.09493 807.8904 540 C 833.90544 540 859.6411 530.73627 877.21776 522.47136 C 952.73424 521.2912 1012.5 504.8525 1012.5 484.78125 Z" fill="white"/><path d="M 1012.5 484.78125 C 1012.5 463.89252 948.09456 447 868.5 447 C 788.90544 447 724.5 463.89252 724.5 484.78125 C 724.5 502.58238 771.7493 517.56747 835.17264 521.47254 C 829.9685 528.19365 821.39184 536.09493 807.8904 540 C 833.90544 540 859.6411 530.73627 877.21776 522.47136 C 952.73424 521.2912 1012.5 504.8525 1012.5 484.78125 Z" stroke="#005c5d" stroke-linecap="round" stroke-linejoin="round" stroke-width="1"/><text transform="translate(725 457.7033)" fill="#235e00"><tspan font-family="PingFang SC" font-size="16" font-weight="500" fill="#235e00" x="99.412" y="17" textLength="88.176">ISP</tspan><tspan font-family="PingFang SC" font-size="16" font-weight="500" fill="#235e00" x="0" y="39" textLength="286.816">SMTP/POP3</tspan></text><path d="M 143.3477 225 C 143.347746 224.99983 147.02326 234.13531 154.77803 240.0026 C 162.54653 245.86196 175.14266 243.468 175.14266 243.468 L 172.94658 236.3766 C 172.8649 236.11281 173.01251 235.83275 173.2763 235.75106 C 173.41488 235.70815 173.56528 235.72754 173.68844 235.80421 L 188.90161 245.27433 C 189.13604 245.42026 189.20779 245.7286 189.06185 245.96304 C 189.04116 245.99628 189.01663 246.02698 188.98877 246.0545 L 175.47104 259.40881 C 175.2746 259.60288 174.95802 259.60096 174.76395 259.40451 C 174.64938 259.28855 174.59854 259.12401 174.62772 258.96363 L 175.79987 252.51996 C 175.79941 252.52017 161.435 253.89537 152.63484 246.19394 C 143.82294 238.49868 143.347746 224.99959 143.3477 225 Z" fill="#6cc7ff"/><path d="M 260.3477 289.8877 C 260.34775 289.88753 264.02326 299.023 271.77803 304.8903 C 279.54653 310.74966 292.14266 308.3557 292.14266 308.3557 L 289.94658 301.2643 C 289.8649 301.00051 290.01251 300.72045 290.2763 300.63876 C 290.41488 300.59585 290.56528 300.61524 290.68844 300.69191 L 305.90161 310.16203 C 306.13604 310.30796 306.20779 310.6163 306.06185 310.85074 C 306.04116 310.88398 306.01663 310.91468 305.98877 310.9422 L 292.47104 324.29651 C 292.2746 324.49058 291.95802 324.48866 291.76395 324.29221 C 291.64938 324.17625 291.59854 324.01171 291.62772 323.85133 L 292.79987 317.40766 C 292.79941 317.40787 278.435 318.78307 269.63484 311.08164 C 260.82294 303.38638 260.34775 289.88729 260.3477 289.8877 Z" fill="#6cc7ff"/><path d="M 387 378 C 387.00005 377.99983 390.67556 387.1353 398.43033 393.0026 C 406.19883 398.86196 418.79496 396.468 418.79496 396.468 L 416.59888 389.3766 C 416.5172 389.11281 416.66481 388.83275 416.9286 388.75106 C 417.06718 388.70815 417.21758 388.72754 417.34074 388.8042 L 432.5539 398.27433 C 432.78834 398.42026 432.86009 398.7286 432.71415 398.96304 C 432.69346 398.99628 432.66893 399.02698 432.64107 399.0545 L 419.12334 412.40881 C 418.9269 412.60288 418.61032 412.60096 418.41625 412.40451 C 418.30168 412.28855 418.25084 412.124 418.28002 411.96363 L 419.45217 405.51996 C 419.4517 405.52017 405.0873 406.89537 396.28714 399.19394 C 387.47524 391.49868 387.00005 377.9996 387 378 Z" fill="#6cc7ff"/><path d="M 585 477 C 585.00005 476.99983 588.67556 486.1353 596.43033 492.0026 C 604.19883 497.86196 616.79496 495.468 616.79496 495.468 L 614.5989 488.3766 C 614.5172 488.1128 614.6648 487.83275 614.9286 487.75106 C 615.06718 487.70815 615.21758 487.72754 615.34074 487.8042 L 630.5539 497.27433 C 630.78834 497.42026 630.8601 497.7286 630.71415 497.96304 C 630.69346 497.99628 630.66893 498.02698 630.64107 498.0545 L 617.12334 511.4088 C 616.9269 511.60288 616.61032 511.60096 616.41625 511.4045 C 616.3017 511.28855 616.25084 511.124 616.28002 510.96363 L 617.45217 504.51996 C 617.4517 504.52017 603.0873 505.89537 594.28714 498.19394 C 585.47524 490.49868 585.00005 476.9996 585 477 Z" fill="#6cc7ff"/><path d="M 702 558 C 702.00005 557.99983 705.67556 567.1353 713.43033 573.0026 C 721.19883 578.86196 733.79496 576.468 733.79496 576.468 L 731.5989 569.3766 C 731.5172 569.1128 731.6648 568.83275 731.9286 568.75106 C 732.0672 568.70815 732.21758 568.72754 732.34074 568.8042 L 747.5539 578.27433 C 747.78834 578.42026 747.8601 578.7286 747.71415 578.96304 C 747.69346 578.99628 747.66893 579.02698 747.64107 579.0545 L 734.12334 592.4088 C 733.9269 592.6029 733.6103 592.60096 733.41625 592.4045 C 733.3017 592.28855 733.25084 592.124 733.28 591.96363 L 734.45217 585.51996 C 734.4517 585.52017 720.0873 586.89537 711.28714 579.19394 C 702.47524 571.49868 702.00005 557.9996 702 558 Z" fill="#6cc7ff"/><g id="id33751_Graphic"><line x1="851.4" y1="720" x2="867.6" y2="720" marker-end="url(#DimensionArrow_Marker_3)" marker-start="url(#DimensionArrow_Marker_4)" stroke="olive" stroke-linecap="round" stroke-linejoin="round" stroke-width="2"/></g><text transform="translate(838 743)" fill="#b1001c"><tspan font-family="Helvetica" font-size="16" font-weight="bold" fill="#b1001c" x="0" y="15" textLength="42.6875">POP3</tspan></text><g id="id33753_Graphic"><line x1="837" y1="639" x2="837" y2="720" stroke="black" stroke-linecap="round" stroke-linejoin="round" stroke-width="1" stroke-dasharray="1,5"/></g><g id="id33754_Graphic"><line x1="882" y1="657.38976" x2="882" y2="720" stroke="black" stroke-linecap="round" stroke-linejoin="round" stroke-width="1" stroke-dasharray="1,5"/></g><path d="M 837 630 C 837.00005 629.99983 840.67556 639.1353 848.43033 645.0026 C 856.19883 650.86196 868.79496 648.468 868.79496 648.468 L 866.5989 641.3766 C 866.5172 641.1128 866.6648 640.83275 866.9286 640.75106 C 867.0672 640.70815 867.2176 640.72754 867.34074 640.8042 L 882.5539 650.27433 C 882.78834 650.42026 882.8601 650.7286 882.71415 650.96304 C 882.69346 650.9963 882.66893 651.02698 882.6411 651.0545 L 869.12334 664.4088 C 868.9269 664.6029 868.6103 664.60096 868.41625 664.4045 C 868.3017 664.28855 868.25084 664.124 868.28 663.96363 L 869.45217 657.51996 C 869.4517 657.52017 855.0873 658.89537 846.28714 651.19394 C 837.47524 643.49868 837.00005 629.9996 837 630 Z" fill="#6cc7ff"/><text transform="translate(776.9882 653)" fill="#6d5000"><tspan font-family="Helvetica" font-size="16" font-weight="bold" fill="#6d5000" x="0" y="15" textLength="23.101562">MT</tspan><tspan font-family="Helvetica" font-size="16" font-weight="bold" fill="#6d5000" x="21.921875" y="15" textLength="11.5546875">A</tspan></text><text transform="translate(918.56693 743)" fill="#6d5000"><tspan font-family="Helvetica" font-size="16" font-weight="bold" fill="#6d5000" x="0" y="15" textLength="36.4375">MUA</tspan></text><rect x="899" y="769" width="272" height="95" id="path_4"/><clipPath id="clip_path_4"><use xl:href="#path_4"/></clipPath><g clip-path="url(#clip_path_4)"><image xl:href="image7.tiff" width="272" height="95" transform="translate(899 769)"/></g><text transform="translate(945.5 806)" fill="#235e00"><tspan font-family="PingFang SC" font-size="16" font-weight="500" fill="#235e00" x="0" y="17" textLength="176"></tspan><tspan font-family="PingFang SC" font-size="16" font-weight="500" fill="#235e00" x="11.14" y="39" textLength="156.72">FormalOutlook</tspan></text></g></g></svg>
